<?xml version="1.0" encoding="UTF-8"?>
<svg id="_レイヤー_1" xmlns="http://www.w3.org/2000/svg" version="1.1" viewBox="0 0 689.4 136.7">
  <!-- Generator: Adobe Illustrator 30.1.0, SVG Export Plug-In . SVG Version: 2.1.1 Build 136)  -->
  <defs>
    <style>
      .st0 {
        fill: #fff;
      }

      .st1 {
        fill: #1a1a1a;
      }
    </style>
  </defs>
  <path class="st0" d="M527.5,132c-2.8,0-5.5-.9-7.7-2.7-1.9-1.5-3.6-3.1-5.3-4.7-9.9,2.8-23.8,5.4-33.7,6.4-4.1.4-8-1.3-10.5-4.3-2.2,3-5.8,5-9.8,5h-14.9c-6.7,0-12.1-5.4-12.1-12.1V29.6c0-6.7,5.4-12.1,12.1-12.1h36.2c.5,0,1,0,1.6,0,.5,0,1,0,1.6,0h48c6.7,0,12.1,5.4,12.1,12.1v47.3c0,.2,0,.3,0,.5l3,5.7c2.4,4.5,1.6,10-1.7,13.7,3.6,4,4.2,10.1,1.1,14.8l-9.8,14.9c-1.9,2.9-4.9,4.8-8.3,5.3-.6,0-1.2.1-1.9.1h0Z"/>
  <path class="st0" d="M557.3,132.2c-.2,0-.3,0-.5,0-3.3-.1-6.4-1.6-8.5-4l-11.3-12.6c-4.4-5-4-12.6.9-17,7.1-6.4,10.5-14.2,11.6-26.6-6.5-.2-11.7-5.6-11.7-12.1v-25.8c0-6.7,5.4-12.1,12.1-12.1h24.9c2-3.8,6.1-6.4,10.7-6.4h15.9c4.6,0,8.7,2.6,10.7,6.4h25c6.7,0,12.1,5.4,12.1,12.1v25.8c0,5.9-4.2,10.8-9.8,11.9,1,1.8,1.6,3.8,1.6,6.1v12.1c3.6,0,6.9,1.7,9.1,4.5,2.3,2.8,3.2,6.6,2.4,10.2l-3.4,15.9c-1.2,5.6-6.1,9.6-11.9,9.6h-33.3c-8.6,0-20.9-1.3-31.2-7.6-.3-.2-.5-.3-.8-.5-1.9,2.3-4,4.6-6.5,7-2.3,2.1-5.2,3.3-8.3,3.3h0Z"/>
  <path class="st0" d="M675.9,131.2h-20.9c-6.7,0-12.1-5.4-12.1-12.1v-18.7c0-2.6.8-5,2.2-7l-3.6-52.2c0-.3,0-.6,0-.8v-7.6c0-6.7,5.4-12.1,12.1-12.1h23.7c6.7,0,12.1,5.4,12.1,12.1v7.6c0,.3,0,.6,0,.8l-3.6,52.2c1.4,2,2.2,4.4,2.2,7v18.7c0,6.7-5.4,12.1-12.1,12.1h0Z"/>
  <path class="st1" d="M460.5,119.6h-14.9V29.6h36.2v14.9c-2.1,8.3-3.2,11.9-6.1,18.8,4.9,7.6,7.1,12.2,7.1,21.4s-1,11.6-5.5,14.6c-2.2,1.4-4.8,1.8-8.9,1.8h-4.6l-3.1-15.2h2.4c3,0,4-.9,4-4.8,0-5.9-2-11.2-6.1-15.4,2.7-7.3,4.4-13.9,5.7-21.4h-6.1v75.3h0ZM484.9,29.6h48v47.3h-1.8l6.2,11.8c-3.4,2.9-5.8,4.6-9.7,6.9,3.1,3.7,5.9,6.3,9.7,9.3l-9.8,14.9c-7.3-5.9-12-12.4-16-21l1.2,13.6c-9.3,2.7-23.4,5.4-33,6.4l-2-15.7c2.4,0,4.8-.4,7.3-.8V29.6ZM500.2,43.6v4.8h17.4v-4.8h-17.4ZM500.2,59v5.1h17.4v-5.1s-17.4,0-17.4,0ZM511.2,98.2c-3.2-6.9-5.2-13.9-6.5-21.3h-4.5v23.3c3.6-.7,7.5-1.2,11-1.9ZM528.7,76.9h-10.2c.6,2.4,1.4,4.7,2.3,7,2.8-2.1,5.5-4.4,7.9-7Z"/>
  <path class="st1" d="M585.7,98.5v-29h-17.4v-14.4h50.7v14.4h-17.5v8.2h27.6v14.5h-27.6v9.7c1.6,0,3.2,0,4.9,0h34.5l-3.4,15.9h-33.3c-8.2,0-17.8-1.5-24.9-5.8-3.8-2.3-6.9-5.5-9.7-8.9-3.4,7.2-6.5,11.5-12.2,17l-11.3-12.6c10.7-9.7,14.5-21.5,15.6-35.5l15.5,2c-.7,5.2-1.5,9.4-2.6,14.6,2.7,4.3,6.3,8,11.1,10h0ZM601.5,27.5v6.4h35.7v25.8h-15.9v-11.8h-55.3v11.8h-16v-25.8h35.6v-6.4h15.9,0Z"/>
  <path class="st1" d="M653.6,40.3v-7.6h23.7v7.6l-3.6,52.7h-16.4l-3.6-52.7h0ZM654.9,100.4h20.9v18.7h-20.9v-18.7h0Z"/>
  <path class="st0" d="M111.3,136.7h-17.8c-.4,0-.8,0-1.3,0-.4,0-.8,0-1.3,0h-14c-2.3,0-4.5-.5-6.5-1.6-.5-.2-1.5-.8-2.9-1.7-6.8,2.2-14,3.3-21.4,3.3-30.5,0-43.7-19-45.8-35.3-1.6-12.4,2.7-26.4,13.1-37.3-5.6-1.9-9.7-7.2-9.7-13.5v-27.5c0-7.9,6.4-14.2,14.2-14.2h14.7C34.7,3.6,39.8,0,45.7,0h27.5c4.1,0,8.1,1.8,10.8,4.9,1,1.1,1.8,2.4,2.3,3.8h26.6c7.9,0,14.2,6.4,14.2,14.2v27.5c0,.8,0,1.6-.2,2.4.3,1.7.3,3.6-.1,5.3-.1.5-.8,3.8-2.4,8.8,12.8,16.2,12.7,39.2-.9,62.6-2.5,4.4-7.2,7.1-12.3,7.1h0Z"/>
  <path class="st0" d="M165.3,136.7c-17.9,0-31.9-5.9-41.6-17.4-16-18.9-19.1-50.5-10.3-102.3,1.2-6.8,7.1-11.8,14-11.8h39.8c4.3,0,8.4,2,11.1,5.4,2.7,3.4,3.7,7.8,2.7,12.1-4.6,19.8-7.5,51.6-1.5,62,.7-.6,1.4-1.5,1.7-2.3,2.2-5.4,7.4-8.9,13.2-8.9h11.3c7.7,0,14,6.1,14.2,13.8,0,2,.2,20-13.5,34.1-9.8,10.1-23.7,15.3-41.2,15.3h0Z"/>
  <path class="st0" d="M252.5,136.7c-35.4,0-48.8-23.1-53.7-43h-15c-7.9,0-14.2-6.4-14.2-14.2v-22.6c0-.9,0-1.8.3-2.7-.2-.9-.3-1.8-.3-2.7v-22.6c0-7.9,6.4-14.2,14.2-14.2h17.3c1.9-5.7,7.3-9.6,13.5-9.6h39.8c4.3,0,8.4,2,11.1,5.4,1,1.3,1.8,2.7,2.3,4.2h11c7.9,0,14.2,6.4,14.2,14.2v22.6c0,.9,0,1.8-.3,2.7.2.9.3,1.8.3,2.7v16.6c7.6,0,13.9,6.2,14.1,13.8,0,2,.2,20-13.5,34.1-9.8,10.1-23.7,15.3-41.2,15.3h0Z"/>
  <path class="st0" d="M367.3,136.7c-10.2,0-17.8-2.1-23.5-5.1-2.6,3-6.5,5-10.8,5h-37.9c0,.1,0,.1,0,.1-3.9,0-7.7-1.6-10.4-4.5-2.7-2.9-4.1-6.8-3.8-10.7,2.8-38.9,14.2-87.6,26.5-113.3C309.8,3.1,314.8,0,320.3,0h40.2c4.8,0,9.2,2.4,11.9,6.4,2.6,4,3.1,9,1.2,13.4-2,4.7-4.1,10.4-6,16.1,5,2.5,9.4,6.5,12.2,13,2.6-3.1,6.5-5,10.8-5h13.7c7.2,0,13.2,5.3,14.1,12.4,3,23.3-4.1,48.6-17.9,64.3-9.2,10.5-20.7,16-33.1,16h0Z"/>
  <path d="M111.3,132h-17.8c-.4,0-.8,0-1.3,0-.4,0-.8,0-1.3,0h-14c-1.5,0-3-.4-4.4-1.1-.4-.2-2-1.1-4.2-2.7-7,2.5-14.4,3.8-22.1,3.8-27.5,0-39.4-16.8-41.2-31.3-1.8-14,4.8-30.2,20.2-40.6h-7.2c-5.3,0-9.6-4.3-9.6-9.6v-27.5c0-5.3,4.3-9.6,9.6-9.6h18.2s0,0,0,0c.5-4.9,4.6-8.7,9.6-8.7h27.5c2.8,0,5.5,1.2,7.3,3.3,1.3,1.5,2.1,3.4,2.3,5.4h30.1c5.3,0,9.6,4.3,9.6,9.6v27.5c0,.8-.1,1.6-.3,2.4.4,1.4.4,2.9,0,4.4,0,.2-1,4.5-3.1,10.7,13.1,14.7,13.3,36.8.3,59.3-1.7,3-4.9,4.8-8.3,4.8h0Z"/>
  <path d="M165.3,132c-16.4,0-29.3-5.3-38.1-15.8-14.8-17.6-17.8-48.9-9.3-98.5.8-4.6,4.8-8,9.5-8h39.8c2.9,0,5.7,1.3,7.5,3.6,1.8,2.3,2.5,5.3,1.8,8.2-4.9,21.1-8.1,55.8,0,66.8,1.3,1.8,2.1,1.7,2.5,1.7,2.3-.3,5.5-3.1,6.6-5.9,1.5-3.6,5-6,8.9-6h11.3c5.2,0,9.5,4.1,9.6,9.3,0,1.8.2,18-12.2,30.8-8.9,9.2-21.7,13.9-37.9,13.9h0Z"/>
  <path d="M252.5,132c-19.4,0-43.1-7.7-50.1-43h-18.6c-5.3,0-9.6-4.3-9.6-9.6v-22.6c0-.9.1-1.8.4-2.7-.2-.9-.4-1.8-.4-2.7v-22.6c0-5.3,4.3-9.6,9.6-9.6h21c0-.5.2-1.1.3-1.6.8-4.6,4.8-8,9.5-8h39.8c2.9,0,5.7,1.3,7.5,3.6,1.4,1.7,2.1,3.8,2.1,6h14.9c5.3,0,9.6,4.3,9.6,9.6v22.6c0,.9-.1,1.8-.4,2.7.2.9.4,1.8.4,2.7v21.2h4.5c5.2,0,9.5,4.1,9.6,9.3,0,1.8.2,18-12.2,30.8-8.9,9.2-21.7,13.9-37.9,13.9h0ZM264.4,89.1c.9,1,1.5.9,1.8.9.7,0,1.4-.4,2.2-.9h-4Z"/>
  <path d="M367.3,132c-11.8,0-19.8-3.1-25.1-6.8-1.2,3.9-4.9,6.7-9.1,6.7h-37.9c0,.1,0,.1,0,.1-2.7,0-5.2-1.1-7-3.1-1.8-2-2.8-4.6-2.6-7.3,2.8-38.4,14-86.4,26.1-111.7,1.6-3.3,5-5.5,8.7-5.5h40.2c3.2,0,6.3,1.6,8,4.3,1.8,2.7,2.1,6.1.8,9.1-2.5,6-5.2,13.5-7.6,20.6,10.9,3.4,16.4,12.6,16.4,27.6s-.6,7.4-1.1,10.1c-.1.6-.2,1.3-.3,1.9,2-3.3,4.2-11.1,4.2-20s4.3-9.6,9.6-9.6h13.7c4.8,0,8.9,3.6,9.6,8.4,2.8,22.1-3.8,45.9-16.8,60.7-8.3,9.4-18.6,14.4-29.6,14.4h0Z"/>
  <path class="st0" d="M108.2,70.6c3.5-8.9,4.8-15.3,4.8-15.3h-27s.2,2.3,0,5.8c-4.4-.9-9.1-1.5-14.4-1.7-.2-3-.3-6-.3-8.9h41.7v-27.5h-40.7c.5-5.5,1-8.7,1-8.7h-27.5c-.3,3-.5,5.9-.7,8.7h-27.1v27.5h27c.2,3.8.6,7.4,1,10.9-41.5,10.7-42.9,61,.2,61s17-2,23.9-5.3c4,3.8,6.9,5.3,6.9,5.3h14c-3.3-4.1-6-8.7-8.3-13.6,5.7-4.8,10.4-10.5,14.3-16.3,6.1,12.8-3.5,29.9-3.5,29.9h17.8c11.8-20.2,11.7-39.9-3.1-51.8h0ZM49.9,81.3c2.4,8.5,5.5,15.4,8.6,20.9-17.4,5.9-24.6-13.7-8.6-20.9ZM75.9,89.5c-.8-3.3-1.5-6.7-2.1-10.1,2.7.4,5.2.9,7.4,1.5-1.4,2.9-3.1,5.9-5.3,8.7h0Z"/>
  <path class="st0" d="M194.5,87.7c-3.8,9.2-17.2,18-25.8,6.3-14.3-19.5-1.5-74.6-1.5-74.6h-39.8c-11,64.6-3.6,103.1,37.9,103.1s40.5-34.7,40.5-34.7h-11.3,0Z"/>
  <path class="st0" d="M293,87.7h-11.3c-3.8,9.2-17.2,18-25.8,6.3-2.7-3.7-4.5-8.8-5.5-14.5h28.5v-22.6h-29.6c0-1.8.2-3.6.3-5.4h29.3v-22.6h-26.4c1-5.9,1.9-9.6,1.9-9.6h-39.8c-.6,3.3-1.1,6.5-1.5,9.6h-29.3v22.6h26.7c-.1,1.8-.2,3.6-.3,5.4h-26.4v22.6h26.9c3,27.6,15.6,43,41.8,43,41.5,0,40.5-34.7,40.5-34.7h0Z"/>
  <path class="st0" d="M404.2,58.2h-13.7c0,14.3-5.4,37-20.2,29.7-.7-.3-2.5-1.5-3.3-4.6-1.2-4.7,1.4-10,1.4-17,0-14.2-5.2-18.8-15.5-19.4-1,0-2,0-4.2.3,3.3-10.2,7.5-23.3,11.6-32.9h-40.2c-11.4,23.7-22.4,69.9-25.1,108.2h37.9c0-15.8,1.6-30.5,4.2-36.9-.5,8.3.4,16.5,3.9,23.6.7,1.7,1.6,3.3,2.8,4.7,0,0,0,0,0,0h0c4.6,5.6,12.7,8.5,23.3,8.5,24.9,0,40.6-34.8,36.9-64.2h0Z"/>
  <polygon class="st0" points="541.3 64.2 541.3 83.9 549.4 88.5 555 68.3 541.3 64.2"/>
  <rect class="st0" x="637.2" y="64.2" width="12.2" height="31.3"/>
</svg>