<?xml version="1.0" encoding="UTF-8"?>
<svg id="_レイヤー_1" xmlns="http://www.w3.org/2000/svg" xmlns:xlink="http://www.w3.org/1999/xlink" version="1.1" viewBox="0 0 280 85.3">
  <!-- Generator: Adobe Illustrator 30.1.0, SVG Export Plug-In . SVG Version: 2.1.1 Build 136)  -->
  <defs>
    <style>
      .st0 {
        fill: #cbaf6b;
      }

      .st1 {
        fill: none;
      }

      .st2 {
        fill: #f3e199;
      }

      .st3 {
        fill: #f4e39a;
      }

      .st4 {
        fill: #c0a15c;
      }

      .st5 {
        fill: #aa853e;
      }

      .st6 {
        fill: #b99851;
      }

      .st7 {
        fill: #c2a45f;
      }

      .st8 {
        fill: #ead894;
      }

      .st9 {
        fill: #e0ca87;
      }

      .st10 {
        fill: #efd98e;
      }

      .st11 {
        fill: #ad8841;
      }

      .st12 {
        fill: #ddc783;
      }

      .st13 {
        fill: #c9ac68;
      }

      .st14 {
        fill: #f5e39f;
      }

      .st15 {
        fill: #e8d591;
      }

      .st16 {
        fill-rule: evenodd;
      }

      .st16, .st17 {
        fill: #fff;
      }

      .st18 {
        fill: #f3e19f;
      }

      .st19 {
        fill: #f8e7a5;
      }

      .st20 {
        fill: #eed78b;
      }

      .st21 {
        fill: #d7bf7a;
      }

      .st22 {
        fill: #f5e3a1;
      }

      .st23 {
        fill: #cfb56f;
      }

      .st24 {
        fill: #f5e29d;
      }

      .st25 {
        fill: #e8d38c;
      }

      .st26 {
        fill: #ecd68c;
      }

      .st27 {
        fill: #e4c670;
      }

      .st28 {
        fill: #f0db92;
      }

      .st29 {
        fill: #b08b44;
      }

      .st30 {
        fill: #e3cd8a;
      }

      .st31 {
        fill: #9e752b;
      }

      .st32 {
        fill: #ecd994;
      }

      .st33 {
        fill: #f6e4a2;
      }

      .st34 {
        fill: #ead48d;
      }

      .st35 {
        fill: #e9d893;
      }

      .st36 {
        fill: #eedc99;
      }

      .st37 {
        fill: #eddb97;
      }

      .st38 {
        fill: #e0cb87;
      }

      .st39 {
        fill: #e5d28e;
      }

      .st40 {
        fill: #e5c976;
      }

      .st41 {
        fill: #ccb16c;
      }

      .st42 {
        fill: #dac37e;
      }

      .st43 {
        fill: #a1782f;
      }

      .st44 {
        fill: #ddc681;
      }

      .st45 {
        fill: #f4e39f;
      }

      .st46 {
        fill: #d7c07b;
      }

      .st47 {
        fill: #c3a560;
      }

      .st48 {
        fill: #dcc682;
      }

      .st49 {
        fill: #a77f37;
      }

      .st50 {
        fill: #ebd995;
      }

      .st51 {
        fill: #e3d08c;
      }

      .st52 {
        fill: #f0dd92;
      }

      .st53 {
        fill: #b38e48;
      }

      .st54 {
        fill: #ecd384;
      }

      .st55 {
        fill: #f3e193;
      }

      .st56 {
        fill: #e6d390;
      }

      .st57 {
        fill: #e7cc79;
      }

      .st58 {
        fill: #ecd47f;
      }

      .st59 {
        fill: #d3ba75;
      }

      .st60 {
        fill: #c6a964;
      }

      .st61 {
        fill: #d5bb76;
      }

      .st62 {
        fill: #ebd282;
      }

      .st63 {
        fill: #f2e19c;
      }

      .st64 {
        fill: #dbc480;
      }

      .st65 {
        fill: #e7d189;
      }

      .st66 {
        fill: #f3e197;
      }

      .st67 {
        fill: #d8c27d;
      }

      .st68 {
        fill: #f0de96;
      }

      .st69 {
        fill: #f2e08f;
      }

      .st70 {
        fill: #ddc883;
      }

      .st71 {
        fill: #f7e69a;
      }

      .st72 {
        fill: #f1de9c;
      }

      .st73 {
        fill: #f1dc8c;
      }

      .st74 {
        fill: #f0de9a;
      }

      .st75 {
        fill: #f7e6a1;
      }

      .st76 {
        fill: #e7d490;
      }

      .st77 {
        fill: #f8e7a2;
      }

      .st78 {
        fill: #f6e38e;
      }

      .st79 {
        fill: #e0ca84;
      }

      .st80 {
        fill: #be9e59;
      }

      .st81 {
        fill: #f9eaa7;
      }

      .st82 {
        fill: #f3e19c;
      }

      .st83 {
        fill: #e2cc86;
      }

      .st84 {
        fill: #efdd96;
      }

      .st85 {
        fill: #e9ce7d;
      }

      .st86 {
        fill: #b5934c;
      }

      .st87 {
        fill: #e4cf88;
      }

      .st88 {
        fill: #e8cf7b;
      }

      .st89 {
        fill: #f8e79e;
      }

      .st90 {
        fill: #fefefe;
      }

      .st91 {
        fill: #efda83;
      }

      .st92 {
        fill: #f0dc87;
      }

      .st93 {
        fill: #e9d287;
      }

      .st94 {
        fill: #ead17f;
      }

      .st95 {
        fill: #ecd791;
      }

      .st96 {
        fill: #b4904a;
      }

      .st97 {
        fill: #d3ba73;
      }

      .st98 {
        fill: #f6e9a5;
      }

      .st99 {
        fill: #ecd588;
      }

      .st100 {
        fill: #c9262f;
      }

      .st101 {
        fill: #efdc98;
      }

      .st102 {
        fill: #a67f37;
      }

      .st103 {
        fill: #f2e09e;
      }

      .st104 {
        fill: #d1b771;
      }

      .st105 {
        fill: #c9ad69;
      }

      .st106 {
        fill: #f2e19d;
      }

      .st107 {
        fill: #a37b33;
      }

      .st108 {
        fill: #f6e596;
      }

      .st109 {
        fill: #b6944d;
      }

      .st110 {
        fill: #a8823a;
      }

      .st111 {
        fill: #c5a863;
      }

      .st112 {
        fill: #e7d086;
      }

      .st113 {
        fill: #f4e29b;
      }

      .st114 {
        fill: #efda93;
      }

      .st115 {
        fill: #d6bb77;
      }

      .st116 {
        fill: #e7cb78;
      }

      .st117 {
        fill: #f0dd9b;
      }

      .st118 {
        fill: #f1de99;
      }

      .st119 {
        fill: #dfca86;
      }

      .st120 {
        fill: #e3ce8a;
      }

      .st121 {
        clip-path: url(#clippath);
      }

      .st122 {
        fill: #bd9c57;
      }

      .st123 {
        fill: #dfca84;
      }

      .st124 {
        fill: #d1b871;
      }

      .st125 {
        fill: #eed98e;
      }

      .st126 {
        fill: #eed887;
      }

      .st127 {
        fill: #ecd681;
      }
    </style>
    <clipPath id="clippath">
      <path class="st1" d="M16,71.6h-6.1l.9-4.1c.2-1.2.3-1.9.3-2.2s-.3-.4-.8-.4-.9.2-1.1.5c-.2.4-.4,1.1-.7,2.3l-2.3,10.9c-.2,1.1-.3,1.9-.3,2.2s.3.5.8.5.8-.2,1-.5.5-1.2.7-2.4l.6-2.9h6.1l-.2.9c-.5,2.4-1,4.1-1.6,5.1s-1.5,1.9-2.8,2.7-2.8,1.1-4.6,1.1-3.2-.3-4.2-1-1.7-1.5-1.7-2.7c-.1-1.1,0-2.9.5-5.1l1.4-6.8c.4-1.7.7-2.9,1-3.8.3-.8.8-1.7,1.5-2.4.7-.8,1.7-1.4,2.8-1.8,1.1-.4,2.3-.7,3.6-.7s3.2.3,4.2,1,1.6,1.6,1.7,2.6,0,2.6-.5,4.8l-.5,2.2h.3ZM36.6,61.4l-4.9,23.4h-6.1l2.1-9.8h-1.8l-2.1,9.8h-6.1l4.9-23.4h6.1l-1.8,8.4h1.8l1.8-8.4h6.1ZM52.6,61.4l-1.4,23.4h-6.2l.6-4.2h-2.2l-1.2,4.2h-6.3l8-23.4h8.8,0ZM46.2,76.4c.2-2.6.6-5.9,1.1-9.8-1.6,4.5-2.6,7.7-3.2,9.8h2.1ZM78.9,61.4l-4.9,23.4h-5.3l3.3-15.8-5.4,15.8h-3.8l1-15.4-3.3,15.4h-5.3l4.9-23.4h7.9c0,1.4-.2,3.1-.3,5l-.4,5.9,3.7-10.9h7.9ZM83.7,61.4h6.1c1.7,0,2.9,0,3.7.4.8.4,1.4.6,1.8,1.1.3.5.5,1.1.5,1.8s0,1.8-.4,3.2l-.4,2c-.3,1.5-.7,2.6-1.1,3.3s-1.1,1.2-2,1.6c-.9.4-2,.5-3.3.5h-1.6l-2,9.4h-6.1l4.9-23.4h0ZM88.9,65.4l-1.3,5.9h.4c.6,0,1,0,1.2-.4.3-.3.5-.8.7-1.7l.4-1.9c.2-.8.2-1.3,0-1.6-.2-.2-.7-.4-1.5-.4h.1ZM107.2,61.4l-4.9,23.4h-6.1l4.9-23.4h6.1ZM123.1,75.1c-.5,2.3-.9,4-1.2,5-.3,1-.8,1.9-1.6,2.7-.8.8-1.7,1.4-2.8,1.9-1.1.4-2.3.6-3.6.6s-2.3-.2-3.2-.6c-.9-.4-1.6-1-2-1.8-.4-.8-.6-1.7-.5-2.7,0-1,.4-2.6.9-5.1l.8-4c.5-2.3.9-4,1.2-5,.3-1,.8-1.9,1.6-2.7.8-.8,1.7-1.4,2.8-1.9s2.3-.6,3.6-.6,2.3.2,3.2.6c.9.4,1.6,1,2,1.8s.6,1.7.5,2.7c0,1-.4,2.6-.9,5.1l-.8,4ZM118.7,67.4c.2-1.1.3-1.8.3-2.1s-.3-.5-.6-.5-.6.1-.8.4c-.2.2-.5,1-.7,2.2l-2.3,10.9c-.3,1.4-.4,2.2-.4,2.5s.3.5.7.5.7-.2.9-.5c.2-.4.4-1.2.7-2.6l2.3-10.7h0ZM144.2,61.4l-4.9,23.4h-5.3l-.9-10.6-2.2,10.6h-5.1l4.9-23.4h5.1l1.2,10.5,2.2-10.5h5.1-.1ZM160.6,68.5h-5.6l.4-1.7c.2-.8.2-1.3.1-1.5,0-.2-.3-.3-.7-.3s-.7,0-.9.4c-.3.3-.4.8-.6,1.4-.2.8-.2,1.4,0,1.8.1.4.6.9,1.4,1.4,2.4,1.6,3.8,2.9,4.3,4,.5,1,.5,2.7,0,5-.4,1.7-.8,2.9-1.4,3.7s-1.4,1.5-2.7,2c-1.2.5-2.6.8-4.1.8s-2.9-.3-4-.9c-1-.6-1.6-1.4-1.8-2.4s0-2.3.3-4.1l.3-1.5h5.6l-.6,2.8c-.2.9-.2,1.4-.1,1.7,0,.3.4.4.8.4s.7-.2,1-.5.5-.8.6-1.4c.3-1.4.3-2.3,0-2.7-.3-.4-1.1-1.1-2.4-2.1-1.3-1-2.1-1.7-2.5-2.2s-.7-1.1-.8-1.9c-.2-.8-.1-1.8.2-3.1.4-1.8.9-3.1,1.5-3.9s1.5-1.5,2.6-1.9c1.1-.5,2.4-.7,3.8-.7s2.9.3,3.9.8,1.6,1.2,1.8,1.9c.2.8.1,2.1-.3,3.9l-.2.9h0ZM181,61.4l-4.9,23.4h-6.1l2.1-9.8h-1.8l-2.1,9.8h-6.1l4.9-23.4h6.1l-1.8,8.4h1.8l1.8-8.4h6.1ZM191.9,61.4l-4.9,23.4h-6.1l4.9-23.4h6.1ZM196.7,61.4h6.1c1.7,0,2.9,0,3.7.4.8.4,1.4.6,1.8,1.1.3.5.5,1.1.5,1.8s-.1,1.8-.4,3.2l-.4,2c-.3,1.5-.7,2.6-1.1,3.3s-1.1,1.2-2,1.6c-.9.4-2,.5-3.3.5h-1.6l-2,9.4h-6.1l4.9-23.4h0ZM202,65.4l-1.3,5.9h.4c.6,0,1,0,1.2-.4.3-.3.5-.8.7-1.7l.4-1.9c.2-.8.2-1.3,0-1.6-.2-.2-.7-.4-1.5-.4h.1ZM227.5,80.8l-.8,4h-12.8l.7-3.3c5.1-6.2,8.2-10.1,9.2-11.5,1-1.5,1.6-2.6,1.8-3.5.1-.6.1-1.1,0-1.4-.2-.3-.4-.5-.9-.5s-.8.2-1.1.5c-.3.3-.5,1-.8,2.1l-.5,2.2h-5.2l.2-.9c.3-1.3.6-2.3.9-3.1.3-.8.8-1.5,1.5-2.2s1.5-1.3,2.4-1.7,2-.6,3.2-.6c2.3,0,4,.6,4.9,1.7.9,1.1,1.2,2.6.9,4.4-.3,1.3-.9,2.8-1.9,4.2-1,1.5-3.6,4.7-7.9,9.5h6.4-.2,0ZM246.8,69.3l-1.6,7.8c-.4,1.8-.7,3.1-1.1,3.9-.4.8-.9,1.6-1.7,2.3s-1.6,1.2-2.5,1.5c-.9.3-1.9.5-3,.5s-2.5-.2-3.4-.5c-.9-.3-1.5-.8-1.9-1.5-.4-.7-.6-1.4-.7-2.2,0-.8,0-2,.4-3.6l1.7-8.2c.5-2.1,1-3.8,1.6-4.8s1.5-1.9,2.7-2.6c1.2-.6,2.6-1,4.2-1s2.4.2,3.3.7c.9.4,1.6,1,1.9,1.6.4.6.6,1.4.6,2.2s-.2,2.1-.5,3.9h0ZM241.3,67.4c.3-1.2.4-2,.3-2.3,0-.3-.3-.5-.7-.5s-.8.2-1,.5c-.2.3-.4,1.1-.7,2.3l-2.4,11.4c-.3,1.4-.4,2.2-.3,2.5,0,.3.3.4.8.4s.8-.2,1-.5.4-1.1.7-2.2l2.4-11.6h-.1ZM259.8,80.8l-.8,4h-12.8l.7-3.3c5.1-6.2,8.2-10.1,9.2-11.5,1-1.5,1.6-2.6,1.8-3.5.1-.6.1-1.1,0-1.4-.2-.3-.4-.5-.9-.5s-.8.2-1.1.5c-.3.3-.5,1-.8,2.1l-.5,2.2h-5.2l.2-.9c.3-1.3.6-2.3.9-3.1.3-.8.8-1.5,1.5-2.2s1.5-1.3,2.4-1.7,2-.6,3.2-.6c2.3,0,4,.6,4.9,1.7.9,1.1,1.2,2.6.9,4.4-.3,1.3-.9,2.8-1.9,4.2-1,1.5-3.6,4.7-7.9,9.5h6.4-.2,0ZM279.7,67.6h-5.8c.2-1.1.4-1.8.4-2.1s0-.5-.2-.7-.4-.3-.8-.3-.6,0-.8.3c-.2.2-.4.4-.5.7,0,.3-.2.9-.4,1.7l-.8,3.7c.4-.6,1-1.1,1.6-1.4s1.4-.5,2.2-.5,2,.3,2.6.9c.7.6,1.1,1.3,1.1,2.1s0,1.9-.4,3.3l-.4,1.9c-.3,1.6-.7,2.9-1,3.7-.3.8-.8,1.5-1.5,2.2-.7.7-1.5,1.2-2.6,1.6-1,.4-2.2.6-3.4.6s-2.8-.2-3.7-.7c-.9-.4-1.5-1.1-1.9-1.9-.4-.8-.5-1.7-.4-2.6,0-.9.4-2.6,1-5.2l.7-3.2c.6-2.8,1-4.6,1.3-5.6.3-.9.8-1.8,1.6-2.7.8-.8,1.7-1.5,2.8-1.9,1.1-.4,2.3-.6,3.6-.6s2.9.3,3.9.8c.9.5,1.5,1.3,1.8,2.2.2,1,.2,2.2,0,3.6h0ZM272.3,74.9c.2-.8.2-1.4,0-1.7-.1-.3-.4-.5-.8-.5s-.7,0-1,.4c-.2.3-.5.9-.6,1.7l-.9,4.2c-.2,1-.3,1.7-.2,2,.1.3.4.5.8.5s.5,0,.9-.4c.3-.2.6-.9.8-2l.9-4.4v.2h.1Z"/>
    </clipPath>
  </defs>
  <g class="st121">
    <g>
      <rect class="st90" x="-12.5" y="-3.6" width="468.4" height="210.7"/>
      <path class="st68" d="M211.2,4.7l2.6.8c2,5.8,5.2,10.7,9.5,14.6,1.5,3.7,3.8,6.3,7,7.7l.5,3.4c3.9-.1,8.9,7,4.9,9-.3,1.9,1.6,3.8,5.6,5.9,2.9,6.6,5,13.5,6.4,20.6l-2.2,1.2c.4,2.9-2,2.8-2.9.2-2.7,2.5-5.6-2.8-2-4,.7-1.4,0-2.8-1.8-4.1-1.7-1.3-1.2-1.5.7-1.9l-5.4-1.3c-3-5.7-5.7-11.4-8.3-17.2-3.9-2.6-7.3-5.4-10.3-8.3-2.1,1.8-2.7,1-1.2-1.3-1.4-.7-2.3-1.9-2.9-3.7-5.1-1.4-12.8-7.6-9.8-12.8-1.2-1.2-3.1-1.8-5.6-2l-.3-1.5c2.3-1.8,3.8-3.9,4.3-6.2,3.9,0,7.8-1.6,11.1,1h0Z"/>
      <path class="st27" d="M285.5,6.4c1.7,1.6,1,2.4-.8,3.4,1.9,3.1,3.1,6,2,9.5,2.3,5.3,4.6,10.6,5.4,16.4,2.4,3.7,4.8,7.5,7.2,11.5,1.7-1,5,2.9,6.2,4.4.5.7.8,1.5,1,2.3,1.9.6,3,2.4,3.4,5.6,4.8,3.2,9.2,7.2,13.1,11.8,4.9,1.9,9.5,3.9,13.8,6.3.3,2.5,2.6,2.5,4.9,2.2.4,1.7,1.3,2.7,2.6,3,1.5-4.9,8,1.9,2.1,3,.3,2.7-2.3,2.3-3.9,1-.2.8-.6,1.6-1.4,2-1,.5-17.8-9-18.8-10l-.5-2.3c-4.3-2.6-8.5-5.3-12.8-7.9-1.2-2.5-3.3-4.4-6.4-5.7l-.6-2.3c-3.3-1.3-5.5-4-6.5-8.1-5.1-3.4-7.3-6.6-9-12.5-2.4,2.1-7.7-5.4-8.9-7.8-1.2-2.1-1.4-4.7-.7-7.7-3.1-4-3.8-7.7-2.2-11.2-1.3-3-1-5.3,1.1-6.8,3.1.5,6.6-1,9.7-.2h0Z"/>
      <path class="st20" d="M237.6,4.7c5.2,2.8,6.7,6.1,4.5,10,4,8.2,7.9,16.5,11.6,24.8,3.1,1.9,5,4.9,5.8,9.1l6.4,9.6-.4,1.8c1.5,3,.4,6.7-3,7.1-.3,1.9-1.1,1.7-1.2-.3-1.8-.3-2.7-2.3-2.9-5.9-3.1-.6-4.2-2.7-3.5-5.6-4-6.1-7.9-12.8-11.2-19l-1.5.3c-3.3-5.7-6.9-11.3-10.6-16.9-2.9-5.1-6.1-11.4,0-14.8,1.5.3,4.4,0,6,0h0v-.2h0Z"/>
      <path class="st65" d="M32.3,65.8c.8,1.3,1.1,2.5,0,3.4l-10,7.6c1.5,2.4,1.9,4.4,1.2,6,3,2.6,0,5.1-3.2,3l-3.9,1.8c-7.5-2.2-15-4.1-22.7-5.7l-1.9-2.1.2-3c1.9-2.9,6.3-3.4,9.6-3.5,6.2-3.1,12.4-6.2,18.7-9.1l10.7-.3,1.3,1.9h0Z"/>
      <path class="st101" d="M200.1,3.8c.7.9,1.2,2.3,1.2,3.3,0,1.7-2.4,1.7-4,3.1,1.2,2,2.3.1,3.4.7,1,.5.7,1.8,1,2.6,0,.8-.4,1.3-1.2,1.6-2.7,1.1-21.8.5-25-2.3-4.2.2-8.2,2.2-11.9,6.1l-2.7-.3c-1,4.2-7.8,5.7-10,1.9-1-2.5.6-4.3,4.9-5.5,5.7,0,9.2-3.8,10.7-11.1l2.5-1c4.3-.7,8.2.3,12.9.4l18.2.6h0Z"/>
      <path class="st28" d="M223.5,4.7c1.9,3.4,3.2,7.3,3.9,11.9,5.4,5.4,11.2,11.8,13.9,19.1.2.4,0,1-.5,1.6,3.7-.9,8.5,8.3,4.5,9.6-2.9,2.2-9.8-4-9.6-6.7.5-1-2.6-7.2-3.6-6.9-.7.2-1.3.6-2,1.9-1-1.9-1.8-3.8-1.1-6.4-3.1,1.4-7.5-7.7-6.7-6.5-2.2-3.1-5.9-5.1-7.4-9.3-1-3-2.4-5.8-3.9-8.2,3.7,0,8.4-.6,12.3,0h.2Z"/>
      <path class="st37" d="M169,2.7c-7.3,21.9-10,8.5-18.1,17.7l-.2,2.4-8.5,2.6c-5.2,3.2-10.6,5.7-16.2,7.4,0,2.8-10.7,7.1-12.6,6.8-1-.2-1.7-.9-2.3-1.7-1.2,2.8-3.9,1.7-4.3-.9-1.9.3-2.2-.5-.6-1.6,1-1.7,2.9-2.7,5.6-2.9l11.2-5.4,6-2.1c3.5-3.4,8.2-5.6,13.9-6.4,3.1-4.1,6.2-6,9.3-5.8,2.4-4.7,5.6-8.1,9.7-10.2,1.9.2,5.3.4,7.1,0h0Z"/>
      <path class="st6" d="M69.9-.2c2.1,5.1.4,9.4-5.3,13l-1.3-.5c.5,2.2-.2,3.8-2.1,4.8-5.5,2.1-10.6,4.6-15.4,7.7-12,3.9-24.5,6-37.3,6.5-4.4,1.9-7.5,1.6-9.4-1l2.1-1.1c-.5-.8-.7-2.3-.1-2.4,5.2.2,10-.6,14.3-2.5,3.2-1,6.6-1.3,9.9-1.1,1.8-1.5,5-3.5,6-1,3-2.1,5.9-2.8,8.7-2,7.3-4.4,14.3-9.5,20.8-15.1-.4-3,.4-4.8,2.3-5.3,2.3-.6,4.5.2,6.8.1h0Z"/>
      <path class="st99" d="M246.4,5.9c1.2,5.3,2.3,10.6,3.4,16l2.7,3.6c2.2,5.9,5.2,11.3,9,16.2,1.8.8,2,2.5.7,5.3,2.2,2.3,4,5,5.4,8.2,6.6,4.5,7.9,8.1,3.9,10.8-4.8,4.7-6.6-.8-6.1-5.8-3.8-5.6-8-11.3-10.7-17.7-.3-.7-3.4,0-3.5-1.1,0-.7.8-2.2.3-3.1l-6.6-12c-2-3.6-2.1-7.8-5.4-10.6.8-2.2,1.8-3.4,2-5.8-2.9-.6-4.2-2.6-4-5,3-.2,5.9,0,8.8,1.1h0Z"/>
      <path class="st87" d="M41.3,57.1c.8,1.4.8,3.1,0,5-1.8,1.6-3.9,2.5-6.1,2.8-.2,2.6-1.1,3.1-2.9,1-3.7.2-7.2.8-11.7-.7-3.2,4.7-9.2,4.9-14,7.2-2.7,1.3-3.3,3.6-7.1,3.1-2.2-.3-5.1,2.6-7.6,1.4.2-2.3.7-4.7.8-7.1,1.2-5.7,7.2-5,11.8-3.3,4.6-.3,8.4-1.6,11.4-3.8,4.6-.8,9-1.7,13.4-2.7,0-4.2,15.3-9.3,11.9-2.8h.1Z"/>
      <path class="st11" d="M51.8-.5c.5,1.5,0,2.4-1.3,3,0,5-6.1,9.7-10.4,12.3-3.3.7-6.2,1.8-8.8,3.6l.6,1c-3.3,2.3-7.4,3-12.5,2-7.2,2.2-16.6,4.2-24,2-.4,1.9-1.2,1.9-1.5,0,.3-1.6-.7-3.4,0-5l.4-1.3s6-.5,17.9-1.5l2.2,1.6c4.8-.9,9.5-2.2,14.3-3.8l.9.6,3.6-4.7c6-1.9,7.9-3.6,8.6-9.8l2.2-.8c2.6.1,5.7-1.3,7.8.8Z"/>
      <path class="st40" d="M275.8,6.6c1,1.3-.3,3.4.4,4.8l.9,1.7c.4.7-1.3,1.7-1.4,2.5-.9,6,5.5,5.6,2.4,14,1.2,1.9,7.8,10.2,8.4,10.6l1.8,4.6c3.7,4.7,4.1,7.5,1.2,8.5-2.6,5-5-2.7-5.6-6.1-2.9-2-4.7-4.4-5.6-7-5.1-3.7-5.8-10.1-5.7-15.8-7.7-1.5-6.6-13.1-3-18.6,1.9-.7,4.4.7,6.1,1v-.2h.1Z"/>
      <path class="st80" d="M65.3,15.3c.9,1.9-.3,3.7-3.7,5.2-7.6,3.4-14.8,6.5-21.4,9.4.6,1.4.3,1.6-1.2.4-.3.5-.5.9-.9.9-7.7,1.5-16.6,2.8-24.4,3-5.7,1.6-11.8,2-18.2,1.3l-1.7-1.6v-4.8c1.4-2.9,5.8-2.4,7.4,0,0,.6-.7,1.2-.3,1.4.5.3,1.6,1,2.4.4,7.1-4.7,13.1,2.2,28.9-4.9,4.1-1.8,8.9-.8,12.5-2.1,2.1-.8,3.2-4.3,7.1-4.5,5-.2,9-3.4,11.6-7.1,1.9,0,2.4,1.3,1.9,3h0Z"/>
      <path class="st112" d="M20.3,85.8c3.3-1.1,10.5,3.3,10,7.1l-2.9,1.6c-10.3-1-20.4-2.5-30.3-4.6-3.6,1-5.4.2-5.3-2.2-.3-2.7-.2-5.3,0-7.9,11.6.5,17.6,4.8,24.3,5.9.8,0,1.6-2.1,2.4-1.4.6.5,1.2,1.1,1.8,1.5h0Z"/>
      <path class="st8" d="M161.8,2.7c-2.3,4.2-6,8-9,11.9-6.9-1.4-3.2,6.3-15,7.6-3.3.4-5,1.4-7.1,4-1.7,2.2-5.7.4-7.8,1.1l-.8-1.1c6.2-5.5,13.2-10.4,21-14.7,0,0,2.6-2.9,7.8-8.7,3.7-.2,7.1-.3,10.8,0h.1Z"/>
      <path class="st76" d="M151,2.7c2.2,6-13.2,15-14.9,15.4-4.3,1.1-5.8,3.2-9.4,6l-3.8,3.1c-4.4,2.3-8.8,4.3-13.4,6l-.8-1.3c-.8-.3-.7-.6.2-.8-1.8-2.1,0-3.6,5.4-4.7,3.2-3.1,7.1-5.7,11.8-7.8,3.6-2.5,7-5.1,10.1-7.9.8-3.7,3.1-6.7,6.9-9,2.3-1,5.6,1.1,8,.9h0Z"/>
      <path class="st47" d="M39,30.3c5.3,1,.9,3-2.7,2.7,0,2.2-2.2,2.5-2.9.2-.7.9-1.7,1.4-3.1,1.7-1.2,2.7-5.8,2.4-8.6,2.2-4.1,3.1-7.6,2.5-12.6,1.7-2.8.8-5.5,1.1-7.9.8-2,1-6.4,1.9-7.4-.6v-5.1c3.9-1.4,8.2-.3,12.6.4,2.7.5,5.2-2.3,8-2.1,13.1.8,12.3-3.6,24.6-1.9h0Z"/>
      <path class="st31" d="M17.5-2.3c5.2,0-4.2,8.7-5.5,9.3-3.8,1.9-13.8,2.7-17.3,0,0-3.1-.4-6.1,0-9.8,8,0,15.5-.2,22.9.3h0v.2Z"/>
      <path class="st62" d="M256.7,5.5c1.3,2.4-.6,3.1-.3,1.8.4-1.6,2.7,0,3.1,1.5l1.1,10.1c-1.9,1.8-1,4.1,2.8,6.7,1.3,2.7,1.1,4-1.7,4.7,1.9-.4,2.1,1.7,2.1,3.8,2,1.6,4.4,5.4,1.7,7.2,1.6,3.4-3.8,4.1-4,.7-3.5-6.8-7.5-13.5-11.9-20.1.8-5-.2-9.6-3-13.9l1.2-2.1c2.1-.7,6.2,0,8.8-.4h0Z"/>
      <path class="st125" d="M231.6,4.7c0,2.5-2.3,6.1-1.2,8.6,2.1,4.6,5.2,8.7,8.3,13,2.1,2.9,1.9,7.8,4.9,9.8,1.8,3.1-.6,3.4-2.8,1.1-1.6-2.4-4-4.2-5-7.5-2.6-8.7-11.5-7-12-19.6,0-2-1.8-4-.4-5.6,2.6.4,5.4-.6,8.1,0h0v.2h0Z"/>
      <path class="st107" d="M33.4-1.3c4.4.1-2.5,8.5-4.3,9.8-3,2.2-10.1,4.8-13.8,4.9-.2,3-6.5,2.8-6.9-.1-2.2,1-12.1,2.2-13.4,1.3-.5-.3-.8-.8-1-1.4.5-1.5.7-3.1.7-4.7,7.4.4,14.9-.4,22.6-2.4C19.8,1.6,23.2-.9,27.4-1.6l6,.3Z"/>
      <path class="st61" d="M108.8.8c1.9,2.1,1.7,4.9-.8,8.6-3.3,2-5.4,4.4-6.2,7.3-2.4,1.2-4.5,2.5-6.5,4,1.3,1.5.8,2.1-1.1,1.4-3.5,2.8-7.3,5-11.6,6.5-1.1.3-2.2,1.3-3.4,2.9-.2.9-.5.8-.9-.1-2.5,1.8-7.5,3.8-10.2,1.8-1.8-.7-1.5-1.7.9-3.1.7-1.7,2.5-2.8,5.4-3.2,1.7-1.5,3.3-2.1,4.9-1.7-2.7-.9-.4-3.4,2.3-3.3l2.9-1.7c2.6-3.1,4.8-4.1,6.7-3,6.2-4.4,9.2-10.1,12.2-16.7,1.8-.4,3.6.1,5.4.1h0s0,.2,0,.2Z"/>
      <path class="st21" d="M31.1,45.1c2.5-1.8,6.5-2.8,7.4,1,4.7,1.4,0,3.1-3,3.7-3.2,0-5.4.9-6.8,2.2-3.5-.6-6.7-.2-9.4,1.4-8.4,1.3-16.8,1.9-25.1,2l-1.3-1.3v-4.2c-.2-.9,0-1.5.8-1.5,11.8-.3,24.2-1.4,35.6-4,.7-.2,1.3,0,1.8.8h0Z"/>
      <path class="st42" d="M52,45c-1.2,4-5.9,5.4-9.7,4.2l-.7,1.3c-4.5.7-8.5,2.1-11.9,4-9.7,1.8-19.5,3.3-29.4,4.3-2.8.3-5.2,0-7.4-1.1-.2-1.2,0-2.4,0-3.6,6.7-1.5,7.9,1.7,11.8-1.8,4.7,1.2,9.3.6,14.2.2,1.7-3.3,4.5-2.2,7.4-2,1.3,0,15.7-2.4,12.3-4.4q0-.9.7,0c3-1.7,8.4-3.1,12.2-3.6.4,0,.8,1.6.6,2.6h0Z"/>
      <path class="st85" d="M264.5,5.7c.9,1.4.9,3,0,4.8,2.6,3,2.3,4.7,1.4,8.4,2.5,2.6,2.5,4.3,0,5.1.8,2.4,1.7,4.8,2.9,7.2l-1.3,1c.8,6.2-4.1,5-4.2-.7l-1.6-1.2c-.4-.7,1-2.6.1-3.4l-6.2-6.1c1.8-1,2.8-1.6,3.5-3.2-3.1-2.3-.6-7.7-1.9-8.8l-2.2-1.8c-.2-.2,1.4-.8,1.7-1.4,2.7-.2,5.2,0,7.8.2h0Z"/>
      <path class="st44" d="M42.3,49.1c.9-.3,1.2,0,1,1.1.4,2.8-1.7,4.2-6.4,4.4l-7.9,3.5c-4.7-.3-8.8.7-12.5,2.9-.1.9-.4.9-1,0-4.9,1.4-10.1,1.6-15.5.7-3.7,1.1-6,.6-7.1-1.5.2-.6.2-1.7,0-2.3,1.9-1.9,4.8.2,7.3-.2l26.3-4.3c.6,0,2.1,1,2.5.6.3-.3-.4-1.7,0-2.3,4.3-.3,9.1-.9,13.3-2.4h0v-.2Z"/>
      <path class="st54" d="M265.5,41.3l1.4-.2c1.6,2.3,2.8,5,3.6,8.2,5.4,4.3,8.5,9.2,9.1,14.8,2.8,2.4,1.9,7.7-2.2,6-.6,1.4-1.1,1-1.7-1.1-3-.3-4.4-1.3-4.2-3.2,1.8-8.6-4.3-3.7-8.2-14.7-.5-1.5-2.8-2.5-3.1-3.9-.3-1.6.8-3,1.5-5-3.2,1.3-9.1-10.8-9.7-12.4-.9-2.7-1.1-5.5-3.9-7.2.4-7.6-6.5-13.1-1.8-16.7h1.4l4.1,8.6c.8,1.8-2.4,5.1-.6,7.1,2.6,2.8,4.8,5.5,5.8,9.3.8,2.9,4.4,4.7,4.6,7.6,0,1.1-.4,3,.6,3.6.8.5,2.1,0,3-.7h.3Z"/>
      <path class="st51" d="M143.1,1.8c.4,2.5-1.3,4.7-4.3,5.5.3,4.8-3.1,8.9-8.3,9.4-1.7,3.5-5.3,4-8.4,5.9l-9.3,5.6c-.9.5-1.9.2-2.7.6-.7.4-1.1,1.3-1.1,2.3-2.2,1.6-3.5.8-2.9-1.8l-.5-1.4c3.6-1.6,6.8-3.4,9.5-5.5-.4-2.5,0-2.5,2-.9l10.7-9.3c2.5-4,5.2-7.5,8.3-10.3,1.5-1,5.4.6,7,0h0Z"/>
      <path class="st86" d="M63.1-.3l-.4,7c-3.4,1.3-8.7,7.6-10.8,8-2.9.6-3.7,3.2-5.2,3.4-4.4.5-5.1,5.2-8.2,3.9-.5-.2,0-.8-1.2-2.2-1.7,2.8-3.8,2.8-6,2.4-2.1-1-1.3-1.5.3-2.7,4.9-.6,9.1-2.4,12.6-5.4-1.1-1.6-.4-2,1.2-.7,4.9-2.6,8.6-6.8,11.1-12.6l2.8-1.1c1.2-.2,2.7.3,3.8,0h0Z"/>
      <path class="st23" d="M36.5,40.3c2.5,3.8-2.2,4.4-5.4,3.9-12.3,2.6-24.8,3.9-37.5,4.1l-.9-1.2c-.5-.7.8-2.3.9-3.1v-1.2c5.9-.5,11.7-1,17.7-1.6,0-2.7,1.6-2.6,3.7-1.5,2.9-1.2,3.3-1,4.1,2,5.7-1.8,11.5-3.1,17.4-4v2.6Z"/>
      <path class="st57" d="M269.7,5.7c1.9,2.4-.1,4.8-1,7.6,1,12,2.6,5.4,4,11-.3,2,0,4.1.6,6.5l-.8.7-1.9,1.2c-2.2-2.2-3.7-5.1-4.5-8.7.9-3.7-4.3-2.3-.9-9.3-.7-1.3-2.8-2.7-2.4-4.7.3-1.3,1.1-2.8,1.9-4.2,1.3,0,4,.4,5.2,0h-.2Z"/>
      <path class="st43" d="M27.4-1.6c-12.3,9.4-2.9,9.6-18.1,10.6l-11.4.7c-1.3,0-2.2-1.3-3.2-1.2v-1.3C13.2,10.5,11.1,2.1,15.9.8c1.5-.4,1.9-2,1.5-3.1,3.3.2,6.6.5,9.9.7,0,0,.1,0,.1,0Z"/>
      <path class="st97" d="M31.1,44.2c.7.3.7.6,0,1-4.6,1-9.6,3-14.5,3.2-3.7,0-6.2,1-9.9,1.1l-13.9.4c0-.7.4-2.3,0-2.9,2.5-.5,5.5.6,8.2-.2,15.2-4.6,16.3,1.1,26-3.3,1.6-.7,3.1-.2,4.1.6h0Z"/>
      <path class="st105" d="M93.1.7c1.9,5-1.3,8.8-5.1,11.7,3.3.8,2.4,3.7-.8,3l-1.6-.5c-2,3.2-9.2,8.1-12,5.9-2.2-2.2-.5-4.4,4.9-6.7l1.1-1.5c-.9-.8,1.8-3.7,3.3-4.5,1.3-2.5,2.2-5,2.5-7.6,2.6.3,5.3-.2,7.9.3h-.2Z"/>
      <path class="st23" d="M101.9.6c1.5.9,2.1,4.3,0,3.8-2.6,5-5.9,9.9-10.6,12.9l-9,6.1c-.7.5-2.5-.5-2.8.5,0,.4.3.7,0,1.3-2.8,2.3-5.2,1.4-2.8-1.7-1-1.3-.9-2.2,0-2.7,3.6-1,6.4-2.8,8.6-5.5h1.9c.4-1.1,1.3-1.5.8-3,1.3-1.5,2.8-2.9,4.6-4.3.7-4,2.3-6.4,4.8-7.4,1.5.2,3.1-.5,4.7,0,0,0-.2,0-.2,0Z"/>
      <path class="st83" d="M29.4,59.9c-5.5,4.7-10.9,1.6-16.7,6.6-2.9-1.3-5.6-.7-6.9,2.5-4.4-3.7-9.1-2-13,.7,0-1.6-.2-3.2,0-4.9.7-2.6,3.3-3.7,7.8-3.3,4.5,1.9,9.4,1.7,14.9-.5h1c2.8-2.2,9.4-3.3,13.2-3.5.7,0,.7,1.6-.2,2.5h0Z"/>
      <path class="st102" d="M38.4-1.3c2.9,2.6.8,10-4,9.8-2.2,2.2-4.8,3.5-7.9,4,0,2.4-8,5-8.9,2.1-1.7,1.5-2.7,1.1-2.2-1.2,9.4-7.1,13.4-3.5,15.3-10,.5-1.5,3.8-2.6,2.8-4.7h4.9,0Z"/>
      <path class="st70" d="M126.2,1.7c3,.6,2.7,3.1-.8,7.4l-1.5,2.1c.6.8.3,1.1-.8,1.1-1.9,2.7-10.3,10.6-13.4,10.6s-1-2,0-3.1c0,0,1.1.2,0,0-.3,0-.6-.2-.9-.5l-.9-.9c5-4.4,8.5-9.7,10.5-15.7l1.5-1c2.1-.7,4.2.2,6.2,0h.1Z"/>
      <path class="st21" d="M113.2.7c2.8.7.8,6.9-.2,8.7-1.3,2.2-13.4,13-15.5,13.2-.9,0-1.6-1-2.2-1.8.3-2.7,2-4.8,5.6-4.8-.5-9.2,4.6.9,7.9-15.2,1.4,0,2.9-.1,4.4,0h0Z"/>
      <path class="st29" d="M55-.2c1.8,1.7-1.4,6.7-2.9,8.6-1.9,2.5-4,3.6-6.6,5-.4.1-.8.7-1.2.7-2.9,2.8-8.3,5-12.3,5.3-.2,0-.5-.5-.8-1.1.9-6.4,7.5-2.4,9.1-5.1,1.5-2.6,4.3-3.5,5.9-5.5,1-1.2.9-3.4,3.4-3.2-2-1.4-1.4-2.9-.4-3.6.7-.5,1.5-1.1,2.5-1.4,1-.2,2.2.5,3.2.2h0Z"/>
      <path class="st30" d="M136.1,1.8l-3,6.6c-1.9,4.1-11.5,13.1-16,13-2-1.9-.8-4,3.6-6.2l2.4-3c.3-.3.6-.7.8-1.1-.3-1.4.3-2.5,2-3.1,1.6-4,4.2-6,8-6.2.5.2,1.8.3,2.2,0Z"/>
      <path class="st79" d="M15.4,61.1c-.2,3.1-12.4,6.2-15.3,2-2.7.3-5.1,1.1-7.4,1.8.2-1.6-.5-3.2,0-4.8,7.5.7,15.4-1.2,22.6,1,0,0,.1,0,.1,0Z"/>
      <path class="st7" d="M81.3-.3c.4,0,.8.3,1.2.5.3.2,2.6,2,2.2,3.8-.2.9-5.3,8.8-7.3,8.4l-1.2,2.1c-1.9,2.2-6.8,6.9-9.4,7.3-2,.3-.3-3.5,1.2-4.4-.9-2.7.7-5.5,4.7-8.1,1.3-2.6,2.4-5.2,3.3-7.9-.9-.6-.9-1.1,0-1.7,1.6.2,3.6,0,5.3,0h0Z"/>
      <path class="st110" d="M44.1-1.3l-1.7,6.7c-.7,3-5.5,4-8.5,5.6-1.1,1.9-2.5,3-4.3,3-1.7-.1-2.8-.6-3.2-1.5.3-1.8,3-1.7,4-3,1.8-2.2,3.3-3.8,6.8-3.2-.5-3,.7-5.2,1.1-7.6,0,0,5.8,0,5.8,0Z"/>
      <path class="st122" d="M76.1-.3v1.7c-1.3,5.6-5.2,10.7-10,14-.2.9-.5.9-.8-.1-1.5-.2-2.2-1.6-1.9-3,1.2-1.7,7.9-4.6,5.3-10-.6,2.9-1.8,4.2-4.5,4.8,1.4-3.2,3.3-5.4,5.7-7.3,2.1,0,4-.4,6.1,0h.1Z"/>
      <path class="st110" d="M15.3,13.4c.6.6,1.4.9,2.2,1.2,2.4,1.8-1,3.2-3.1,2.5-3.4.4-7.1,2.3-10.7.9-2.3-.9-3.5.2-5.3.4-1.3.2-3.2-1.4-4.6-.1.3-.6,0-1.5,0-2.1l.4-1.4c4.8.2,9.5-.3,14.2-1.5h6.9c0,0,0,.1,0,.1Z"/>
      <path class="st109" d="M-4.7,23.4c5.9,1.2,12.1,1.1,18.7-.2l1.3,1.1c-5.2,6.7-9.3.3-14.1,5-2.3.6-5.1-.3-7.4,0,0-2-.4-3.8,0-5.8.5-.1,1.1.2,1.5,0h0Z"/>
      <path class="st64" d="M119.9,1.7c1.3,1.8-5.7,13.3-8,14.5-1.7.8-2.5,1.7-3,3.1-1.7,2.1-4.6,4.8-4.7.9-2.5-1.1,0-3.6,2.1-4,4.8-3.8,7.7-8.5,8.6-14l2.1-.7c.9-.2,2,.5,2.9.2h0Z"/>
      <path class="st67" d="M117,1.5c-1.7,9.3-3.6,4.3-2.6,8.6-2.6,1.7-5,4.7-7,7.5-.6.8-2.1.1-2.5.5-.6.5-.4,1.7-.6,2.2.8,3-6.6,8.8-8,4.2-1.5,1.6-2.6,1.8-3.3.8-1.8-1.7-1-2.8,1.4-3.1l1.1-1.4c4.4.5,8.1-3.8,11.1-7.1,5.4-5.9,5-1.1,6.8-12.9,1.3,0,2.7-.4,3.8.8h-.2Z"/>
      <path class="st124" d="M91.2,17.3c.8-3.2,2.9-5.3,5.5-7.7,1.3-1.2.9-3.9,2.9-4.6,2.1-.7,2.8-2.7,2.3-4.4.4.1,1.1.1,1.5,0,.2,1.6.9,2.8,1.7,4.6-1.2,0-2.7-.9-3.2-.2,1.7,5.1-8.7,14.2-10.7,12.3h0Z"/>
      <path class="st0" d="M1.2,39.7l2.9.2c4.1-1.8,6.6-1.4,7.3,1.3-.7.5-.8,2.2-1.8,2.4,5.5-1-18,.9-15.9.4v-4.9c2.7-.2,5.7-1.6,7.5.6h0Z"/>
      <path class="st111" d="M85.2.4c1.9,2.4,1.2,7.4-1.4,9.3-1.5,1.1-3.7,1.1-4.4,2.9.5,1.5-1.9,2.2-3.1,1.9-.3-.9,0-2.3.5-2.9.6-.5,3.1-.4,3.2-1.4.4-3.1.4-5.7,3.8-7.5-1.2-1.2-2.2-.7-2.4-1.2-.2-.7,0-1.3,0-1.8,1.4,0,2.6.5,3.8.7h0Z"/>
      <path class="st41" d="M97.2.7c-2.8,5.5-1,10.1-9.3,11.7-.9-2.6,3.2-3.8,3.3-6.6,0-2,.5-3.7,1.8-5,1.3.3,2.8-.2,4.2,0h0Z"/>
      <path class="st53" d="M59.3-.2c-1.1,2.4-10.3,15.7-13.8,13.7.3-1.6,1.4-2.8,3.4-2.6,4.6-3.6,2.5-6.4,6.2-11,1.4-.4,2.9.2,4.3,0h-.1Z"/>
      <path class="st38" d="M133.8,1.8c-8.4,5.5-3.2,7.2-10,9.4-2.6-8,3.6-2,2.3-9.4,2.1-.2,5.8-.5,7.7,0h0Z"/>
      <path class="st49" d="M8.4,13.3c-3.9,3.4-9.6,2.3-14.6,2.9,0-1-.2-2,0-3,4.8.5,9.6,0,14.4.1h.2Z"/>
      <path class="st118" d="M201.7,13.5c5.9,15.5,12.5,5.8,12.7,16.5,0,.9-.4,2-1.2,2.1-2.2.2-12.5-6.2-14.3-8.4-2.6.7-4.3.2-5.3-1.4-.2.9-1.1,1.1-2.5.6-6.1-3-12.4-5.4-18.4-.7l-5-.9c-.6,3.1-4,2.9-4.9,0-2.6.1-3-.5-2-2.8,18.3-15.6,12.9-3.2,26.3-5.4-3.5.6,16.1-.6,14.6.4h0Z"/>
      <path class="st52" d="M245.4,46.9c2.5,1,4.6,3,6.2,6l2,9.4c1.4,2.3,1.7,4.2,1,5.8,3.4-.6,3.1,5.3.9,7,1.1,2.8-4.5,4.1-5.7,1.5-2.1-1.5-4.9-6-4.1-8.6.9-2.3-1.8-5.1-1.8-7,0-3.7-1.2-7.9-3.1-11.4-1.2-2.2-1.1-5-4.7-5.8-.7-.2-1.3-1.1-1.4-1.8,0-.6,1.1-1.1,1.1-1.6,4.5,6.4,4.4,2.4,9.6,6.7h0v-.2Z"/>
      <path class="st2" d="M239.7,58.1c-1.1,2.8-3.9,2.7-5.7.6-1.9,2.3-6.2-4.9-6.7-6.4-.1-.3.1-.7.5-1.2-2.5,2.4-4.2.7-5.3-5.2-2.4-1.4-3.3-3-2.7-4.7l-2.1-2.1c-4.5-5-5.1-7.6-2-7.9,15.2,6.1,12,8.7,14,13,1.9,3.8,6.1,6.5,5.9,11.7,1.7,1.1,3.5.7,4.1,2.1h0Z"/>
      <path class="st66" d="M239.7,58.1c-.1.6-.3,1.4-.7,1.9,2.1,1.3,2.8,2.7,1.8,4.1-.4,1.9,1,3.1,2,4,5.2,2.8-.2,10.2-4.1,12.6-1,3.9-3,5.3-6,4.2-2.5,2-3.9.8-2.2-1.8-.9-1.1-1.4-2.3-1.4-3.6l5.6-14.4c-2-2.7-2.2-4.9-.8-6.4,1.7-1.1,3.8-.2,5.7-.6h0Z"/>
      <path class="st82" d="M214.4,30c.5.3.7,1.1,1.2,1.3-2.3,2.2,2.4,1.9,4.1,10-2.6,2.5-5.9.2-5.4-3.2l-3.7-1.9c-1.3,2.3-2.2,1.8-1.7-.9-1.9-.8-3.6-2-4.2-4-.5.7-1.2.9-2,1.1-.6,0-10.7-6.1-8.9-8.2-2.7-.1-2.5-1,0-1.8,1.8.2,3.8-.8,6.2-1,1.6,3.6,4.8,4.3,7.9,6,2.3,1.2,4,3.3,6.6,2.8h0v-.2h-.1Z"/>
      <path class="st2" d="M240.8,64.1c.1-1.2-3.1-2.5-1.8-4.1,1.1.2,3,.5,3.7,2.1.4,1-1.2,2.4-1.8,2h0Z"/>
      <path class="st73" d="M261.3,66.8l1.2.3c1.8.9,3.1,2.9,4,6,2.1,2.4,3.1,4.7,2.9,6.9,1.3,3.9,1.6,13.9-4.1,9.8-1.3,3.6-9.7,0-8.9-3.4-4,0-2.5-3.4-.3-5.4l-.7-5.9c-1.3-2,.2-4.8-.9-7-.2-3.2,5.9-4.8,6.7-1.3h0Z"/>
      <path class="st10" d="M261.3,66.8c-2.3-.6-4.4,1-6.7,1.3-3.9-3.9-3.2-9.6-4.9-14.4-.7-1.9-4.3-3.5-4.3-6.8s-2.6-6.8-4.5-9.6c.9-.3,2.6,0,2.8-1.1,4.1,0,6.6,9.2,12.9,18,.7.9-.3,2.9.4,3.9.4.7,2.4.6,3,1.5,1.5,2.2.8,5,1.3,7.2h0Z"/>
      <path class="st126" d="M271.5,65.8c.8.9,1.4.3,2.9.3s1.3,2.1,1.2,2.9c1.7,2.7,4.4,7.4,1.9,9.9,3.4,1.8,1.7,7.7-2.1,5.8-2.4-.2-7.2-1.9-6.1-4.7-2.9-2.1-6.9-8.7-7-12.9,0-2.7,3.6-4.4,3-7.1,1.1,1.6,2.2,2.9,2.1,5.7,1.5,0,3.1-.8,4,0h.1Z"/>
      <path class="st25" d="M41.6,63.8c.7,0,.6.9-.4,2.3,2.4,1.4,1.4,2.6-1,2.9-3,3-5.1,6.4-6.5,10.3-.3,3.3-1.5,5.1-3.5,5.4-.9,3.8-7.2,2.1-6.7-1.9-1.3-1.2-2.2-2.8-2.8-3.9-3-5.2,8.6-7.3,11.6-13.1.9,0,1.8-1.2,2.9-1,1.8-.2,3.6-.9,5.7-2l.7.9h0Z"/>
      <path class="st93" d="M30.3,84.7c.3-.5.5-1,.9-1.4.5-.5,10,1.8,10.1,3.7,2.8-1.4,10.5,1.8,7.1,5.6.7,2.7-2.3,3.3-4.6,3.1-2.7-.2-7.8-1.2-10.5-1.8-.7-.2-1.4-.4-1.9-1h-1l-10-7.1c1.8,0,2.8-1.5,3.2-3,1.8,1.6,4.5,2.3,6.7,1.9h0Z"/>
      <path class="st117" d="M160.9,18.5c1,.7,1.7,1.7,2,2.8v2.4c-11.5,4.6-23.5,8.1-35.9,10.5l-1-1.4c-.4-2.7,2.4-2.6,4.7-3.2,4.2-1,7.2-4.9,11.3-6.3,3.2-1.1,6.3-1.3,8.9-2.9,1.6-1,5,1,6.3-.2,1.2-1.2,2.3-1.9,3.8-1.7,0,0-.1,0-.1,0Z"/>
      <path class="st103" d="M167.8,21.2c5.3-.6,7.3.6,6,3.5-.6,1.7-2.2,2.9-5,3.5-5.7.3-11.3,1.1-16.9,2.4-5.6,3.5-12,5.4-19.1,5.8-4.8,1-9.7,2.2-14.5,3.6v2.5c-6,3.2-12,6.2-18.1,9l-2.1-.6c-1.4,1.2-2.7,1.9-2.9,0-2.1-1.5-1.2-3.1,2.6-4.8l5.6-2.5c2.5-2.5,5.1-4.4,7.8-5.7,5.3-.5,10.2-2.7,14.9-5.1,7,.7,9-2.9,21.5-5.4,3-.6,5.1-3.6,8.8-3.1,2.4.3,5-1.8,6.6-3.1,1.4-.2,3.7.3,4.9,0,0,0-.1,0-.1,0Z"/>
      <path class="st50" d="M106.2,35.5c0,.4.6,1,.6,1.6,2.7,3.1-3.3,6.8-6,4.9-1.5.4-3,.7-4.5,1.1-2.4,2.8-5.6,4.7-9.5,5.9l-21.7,15.3c-.6,3-1.8,3.9-3.7,2.6-2.5.9-12.2,2.8-9.5-1.5-.9-3.8,2.8-6.3,6.4-5.5l5.9-5c2.8-.2,5.1-1.1,7-2.7l.8-2.4,6.4-3c2.4-2.9,5.1-4.3,8.2-4.2,2-1.5,17.1-9,18-8.6.7.3,1.2,1,1.6,1.6h0Z"/>
      <path class="st72" d="M111.1,37.9c-.6,2-1.6,4.2-4.2,5-5.1,6.7-10.9,1.6-11.8,8l-.3,1.5c-5.6,3.3-10.3,8-13.9,13.9l-2.8-.4c1,4.1-2.6,6.5-5.1,3.1-4.8-2,2.7-8.2,5.1-10.1-1.8-1.5-1.1-3.3,2.1-5.5,6.2-3.6,12.2-7.5,18-11.6h2.5c1.8-1.7,5-1.8,6-4.7,1.4-.3,2.9.9,4.3.9h.1Z"/>
      <path class="st35" d="M123,27.3c-8.9,7.2-6.8,5.3-16.8,8.2-4-.9.2-6.5,2.5-3.6,2.5.4,3.4-1.3,5.7-2.6,2.3-1.3,6-1.2,8.5-2h.1Z"/>
      <path class="st96" d="M44.3,14.2c-3.4,8.1-12,2.6-13,8-2.3-.4-4,2.8-5.9,2.9-2,.2-4.1-1.2-6,1-1.7-.8-2.8-1.4-4.1-1.9,0-1.4,1.3-2.3,4-2.9,3.6-5,9.1,1.4,12-3,7.6-.2,9.1-3.7,13-4.2h0Z"/>
      <path class="st120" d="M115.1,22.3c-.4,7.1-3.3.8-9,6.9,1.3,2-1.1,4.1-2.8,5.3-8,3.7-16.1,7-24.3,9.8-4.6,3.8-10,6.4-16.2,7.6-6.6,3.2-13.2,6.6-19.9,10.4l-1.4-.3c-.7-.4-2.1-1.5-1.8-2.4.2-.7.9-2.2,1.7-2.6-.9-4.1,2.1-6.1,9.2-6l.6-1.1c8.1-2.7,15.7-6.2,22.9-10.5,0-2.6,1.2-2.7,2.3-.3,4.2-1.3,8-3.5,11.5-6.6,2.5-.9,4.8-1.4,7.1-1.5-1.2-2.9,4.8-6.6,7.2-4.8l11.4-5.5c.9.2,1.4.8,1.7,1.7h-.2Z"/>
      <path class="st123" d="M50.5,51c-1.6.3-3.5,1.5-5.2,2.1,0,2-.6,1.8-1.7,0-.2,1.9-.8,3-2.4,3.9,0-5.2-8.8,2.7-11.9,2.8.7-2.4-8.2,1.3-13,1,.5-1.8,2.5-4.4,4.9-3.9,5.2,1.1,8.3-1.8,12.7-3.4,3.2-1.2,6.9-.6,9.2-3.4,2-1.5,6.1-2.2,7.2.8h.2Z"/>
      <path class="st65" d="M41.4,62.1c2,0,2.1.9.3,1.8-3.9-.2-3.9,4-6.4,1,2.1-1,3.6-3.5,6.1-2.8Z"/>
      <path class="st53" d="M19.3,21.3c-.9,1.3-2.1,2.5-4,2.9-4.8,1-10.1,1.2-15.3.8-1,0-2,.7-2.7.5-1.2-.4-1.6-1.3-2-2.1,2.4-.9,4.6-.1,7.3.4,2.3.5,4.5-2.2,6.9-2.2l9.8-.2h0Z"/>
      <path class="st5" d="M29.6,14c-.9.9-15.3,6.2-15.2,3.2,1.2-.1,2.4-1.6,3.1-2.5,3.1.1,5.9-1.3,8.9-2.1,1-.3,2.4.1,3.9-.2.3,1.1-.3,1.2-.7,1.6Z"/>
      <path class="st116" d="M289.5,53.2c1.4.6,3.1,2.3,3.9,3.6-.4.6.2,1.6.2,2.2,2.6.6,3.9,5.5,1.7,7.2,1.5,3.6-1.6,3.8-3.7.8.2-2.2-1.1-3.7-3.9-4.4l-5.1-8.5c-4.3-3.8-6.6-8-7-12.6-3.2-2.4-7.8-8.1-3.2-10.1.6-3.6-2.2-7.4.2-7.1,1.4,5.6.7,9.2,7.3,16.5,2.3,2.5,6.3,3.9,6.5,7.8,0,1.1,0,2.2.2,3,.3,1.4,1.5,2,2.9,1.5h0Z"/>
      <path class="st7" d="M67.1,17.4c.4,3-.7,5.8-4.1,4.9l-3.7,2.9c.4,1.8-.4,2-1.2.3l-12.7,5.6-1.2-.8c-.4.9-.7.9-1.1,0-.6,1.8-2.9,2-3-.4.4-5.3,1-.8,9.1-5.4l6.3-3.6c3.5-2,8.3-1.6,9.7-5.5.2.1.5.2.8.1,1.9-.3,2.3.5,1.1,1.9h0Z"/>
      <path class="st60" d="M43.2,30.3c2.6,3.4-5.7,6.5-6.9,2.8.9-.9,2.2-.8,3.7-1,0-.9-.9-1.2-1.1-1.7-.2-.5.8-.5,1.2-.4l3,.4h0Z"/>
      <path class="st56" d="M109,31.1c0,.3-.2.5-.2.8-1.4-.2-2.8,2.4-2.5,3.6-2.9.9-6,1.3-9,3.3-3.7,2.5-8.6,3.2-10.9,7.1-4.7-5.1.8,1.1-15.1,6.2-1.7,2.3-7.2,3.7-8.8.9-.5-.4-.4-.8.2-1,2.5-6.2,7.7-1.6,13.4-8.1,2.2-2.4,5.8-1.9,8.4-3.3,15-7.7,13.6-2.9,21.5-11.4,1.1.5,2,1.1,2.9,1.8h0Z"/>
      <path class="st13" d="M45.3,32.2c.4,2.4-1.2,4-4.8,5-7.2.8-14.3,2.2-21.4,4.5-2.7-1-4.9-2.2-7.8-.5-5.3-2.4-7.1,2.2-10.2-1.5,4.5-1.5,9.2-4.5,14-.8,1.7-1.2,3.9-2.8,6.3-3.7,2.8.4,5.9.3,8.9-.3,1.2-.4,2.2-1,3.1-1.7.9,0,2-.4,2.9-.2,1.5.6,3,.8,4.5.2s2.6-1.3,2.3-3c.3,0,.9.1,1.1,0,2.6-.7,2.9.1,1,1.9h0Z"/>
      <path class="st60" d="M33.5,33.3c.5.8-.2,1.5-.8,1.8-.9.4-1.7-.2-2.3,0,.4-1.4,1.8-1.8,3.1-1.7h0Z"/>
      <path class="st94" d="M267.5,32.1c2.9-.6,3.3,3.3,3.2,5.7,3,1.1,4.2,3.4,3.5,6.9,6.2,9.7,13,19.3,22.2,26.6,1.3,2.1,2.5,5.7,1.1,7.6-.5,5.4-4.2,1.3-5.1-2.4l-1.2-1.5c-6.1-2-9.9-5.6-11.6-10.8-1.2-.2-2.5-2.8-2.9-4.1-1.1-3.9-4.9-5.9-7.3-8.9-2.2-2.7-2.1-7.1-3.9-9.9.2.3-5.6-14.6-3.8-11,.8-.8,2-.9,2.8-.4,1.3.9.3,2.1.2,3.6-.1,1.2,1.6.9,2.1.3.3-.4.6-.9.8-1.6h-.1Z"/>
      <path class="st46" d="M78.4,31.5c2.9.5,2.4,2.2-.3,2.7.3.5.5.9.5,1-1.7,1.4-6.1,2.8-8.6,3.5-1.7,2.2-3.3,2.9-4.7,2.2-3.8,1.9-8,3.6-12.1,4.9-.3,0-.7-.3-1.2-.7-4-3.2-9.2,3.4-12.9,1.1-3.1-.7-1.7-4.1.8-2.5,2.1-1.8,6.8-4.2,8.4-1.3l.3-1.5c5-2,10-4,15-5.9.9-1.3,1.8-1.9,2.8-1.7.6-1.9,1.4-1.8,1.9,0,3.4-1.2,6.6-3,10.2-1.8h0Z"/>
      <path class="st64" d="M96.2,24.4c2.7,2.3-1.4,5.1-3.9,5.4-.5,1.7-2.1,2.7-4.9,2.9-2.2,2.3-4.3,3.1-6.1,2.4-1.2.2-2.9.4-3.2-.9l.3-2.7c.3,0,.6.1.9.1,1.1-3.4,4.3-4.1,7.7-4.4,2.9-3.2,4.8-3.8,5.8-2,1.1,0,2.1-1.1,3.3-.8h0Z"/>
      <path class="st23" d="M76.5,23.5c.2.6.4,1.2.8,1.4.6.3,1.5.4,2,.3-2.2,3.4-6.5,4.8-10.3,5,0,1.9-2.4,2.3-2.8,0-3.5-1.3-2.1-3,4-5-.4-2.7.5-3.2,2.8-1.9.5-2.1,3.1-2.2,3.5.2Z"/>
      <path class="st46" d="M94.2,22.1c-.7.9-1.1,2-1.4,3.1-2.3-.1-3.4,1.5-5.4,2.9-.9.6-3.2-.6-4,1.2-.9,1.8-2.6,2.2-4.1,2.2-.2-1-.5-4.8,1-4.9,12,1.2,5.7-5.4,13.9-4.6h0Z"/>
      <path class="st104" d="M69.1,30.2c.5-.1,1.3,0,1.4.6-1.6.8-1.8,1.6-2.3,2.4-.6.2-1.3,0-1.9,0-2.9,1.2-3.2.4-1.1-1.8-.8-.4-.7-.8.2-1,0-.9.3-.9.8,0h2.8v-.2h0Z"/>
      <path class="st59" d="M48.2,39.3c2.2.8,1.9,1.5.2,2.9-.8.2-9.8,0-9.2,3.8h-.7c-2.4-.3-5-1.5-7.4-1v-1c1.9-1.1,4.6-1.7,5.4-3.9,1.2-2.7,2.2-2.7,3.6-.2,1.5.3-.4,2.3-.4,2.2,1.9-3.2,6-6.6,8.4-3h0v.2Z"/>
      <path class="st48" d="M78.1,34.2c1,0,3.1-.3,3.2.9,1.3,2.7-1.2,3-3.6,3.1l-1.4,1c-.8,0-1.5.4-2.3.3l-8.2,4.8c-5.7,1.6-10.8,3.8-15.3,6.8-2.4.2-4.9-.2-7.2-.8-.3-.4-.6-.8-1-1.1,3.3-1.2,6.7-2.5,9.7-4.2.9-.5,1.7-1,2.1-2,5.1.2,12-6.5,12.8-2.8.6-1.5.3-2.5,1.2-3.3-1.6,1.5,10.7-2.7,10-2.7h0Z"/>
      <path class="st88" d="M272.4,31.4c-.6,4,2.1,7.4,5.6,9.2-1.5,8.7,2.6,3.5,11,20.7.4.8,3.3.5,3.8,1.6.3.8.4,1.8.5,3.2,0,.7,1.1.9,1.6.8.3,0,.8-.3.4-.9,2.9-1.1,5.9,3.6,3.2,5.6,2.5,1.8,3.8,6.4,1,8.2-1.3,1.6-2.2,1-2-1.2.5-3-1.3-6-4.2-7.6-3.5-2-5-4.9-7.3-7.7-3.4-4.1-7.8-6.6-9.4-12.4-.8-2.7-6.5-4.8-3.8-9.9-1.8-1-3.7-1.7-4.3-3,1-2.6-1.1-4.7-1-6.1.2-3-2.3-5.1-1.6-8.2,3.1-.7-1.4,3.8,6.5,7.4v.3h0Z"/>
      <path class="st38" d="M123.1,12.2c-.7,7.3-3.6,2.4-6,9.2-.6.3-1.3,1-2,.9-5.7-.4-4.8,5.2-13.1,3.8-.3-2.5,1.5-4.3,5.4-5.4l1.5-1.5c.6-.3,2-1.3,2.1-.2,0,.8-1,1.4-.8,1.8.3.5,1.1.4,1.5.5-2.6-.4,10.9-9.2,11.4-9.1h0Z"/>
      <path class="st41" d="M70.3,25.3c0,3.2-5.5.3-4,5h-.8c-1.1.7-2.2,1-3.2.9l-1,1.7c-7,2.8-14,5.2-21.2,7.2-1.2,0-2.4,0-3.6.2-4-5.2-10,4.1-17.3,1.4.2-.6-.7-1.5-.3-1.8-1.6,1.2,14-2.7,16.1-3.3s3.7-2.1,6.1-.4c1.7-1.6,2.5-3.2,4.2-4,1.5-1.8,6.5-4.5,8-1.9,3.7-1.6,7.2-3.4,10.6-5.3l1.3.8c2.5-2.2,4.2-2.3,5.1-.4h0Z"/>
      <path class="st60" d="M79.4,12.6c2.1,4.9-2.1-1.4-6,8.2,0,.9-.4,1-1,.3-1.3,2.3-10.8,6.2-12.1,6-.6-.1-.9-1.2-1-1.9.3-1.7,5.2-3.8,7.8-7.8.2-.9.6-.8.9,0-.2.9-.7,1.9-.6,2.4.3.9,1.5.8,1.8.2.2-.4,0-1.1.2-1.8,1.7-2.4,4.6-2.7,6.9-3.7.9-.5,2-1.8,3.1-1.9h0Z"/>
      <path class="st41" d="M87.1,15.4c-1.5,3.9-5.6,5.1-9.5,6.3,0,1,0,2.4-1.1,1.8l-3.5-.2c-2.9.9-3.4-1-.6-2.2l1-.3c11.8-3.7,10.3-8.1,11.5-8.1s1.7,0,1.9.4c.3.7.4,1.8.3,2.3h0Z"/>
      <path class="st4" d="M68.1,17.4h-.9c-.5-.6-.9-1.3-1.1-2-.3-3.2,2.5-5.2,5.6-6.6.4-3.2,1.8-6.1,4.4-7.4.3,0,2.1,1.1,1.7,1.7l-3.6,6.3c-1.7,3.1-4.6,5.1-6.1,8h0Z"/>
      <path class="st12" d="M108.9,19.3c-1.3,3.4-4.1,5-6.9,6.9l-7.2,4.8c-1.7,1.1-2.7.9-2.5-1.2,0-2.6,3.2-3.1,3.9-5.4.8.2,2.7,0,3.8-.3.9-1.9,2.7-2.9,4.2-3.8,1.5,1.2,3.2,0,4.7-.9h0Z"/>
      <path class="st106" d="M193.7,22.3v1.8c-1.4,2.2-4.1,2.5-8.2.7-3.8,1.6-7,1.7-9.6.3-1.2,2.4-1.7,2.3-2.1-.3-1.3-2-3.8-2.9-6-3.5.7-.2,2.3-.2,3.3-.3,5.9-5,14.3-4.5,20,.6.5.5,2.1.3,2.6.7h0Z"/>
      <path class="st69" d="M256.4,86.4c1.5,3.3-4.2,3.4-6.8,3.2-.2.5-.5,1-.8,1.1-.3,0-5.2,1.1-5.5,1-1.8-.3-4.2-5.7-1.6-6.8,1.4-3.3,3.4-6.4,5.9-9.2l2.2.8,5.7-1.5c.4.2,1.3,0,1.7.7.3.4-.2,1.3,0,2l1,2.8c.6,1.8-3.9,3.3-1.8,5.8h0Z"/>
      <path class="st55" d="M245.7,67.9c2.2,2.2,4.8,5.1,4.1,8.6-6.8,5.3-2.9,5.7-4.7,7.2-.8.6-2.3,1.5-3.4,1.1-.7,2.2-1.6,4.5-4.2,2.7-.6-.7-2-.9-4.3-.6l-.6-1.2c-.8-.3-.8-.7,0-1,3.4,0,3-4.8,5.1-6,3.6-2.2,6.1-6.9,5-10.8l2.9-.2v.2h0Z"/>
      <path class="st3" d="M234,58.7c4.6,9.5,2.6,5.3,1.4,9.8-1,3.9-2.3,7-4.1,10.5-.6,1.1,1.4,3.7-.7,4-1.3,2.4-5.9,2.5-6.9-.3-3.9-.5-1.4-4,1.1-5.6l-1.3-2.3c-2.9.7-3.1-1.4-.8-2.7-2.4-2.4,1-4.8,3-2.1,0-4,.5-8,1.1-12-2.9-5.8-2.6-8.1.9-6.9l6.3,7.6h0Z"/>
      <path class="st24" d="M219.7,41.2c1.2,1.1,4,2.5,4.6,4.1,1.1,2.8.4,5.4,3.4,5.7-.4.6-.9,1-1.4,1.9,3.7,3,2.6,7.4,1,11.3-.7,1.7.7,4.9-1.7,5.7l-2.1-.9c-1.2-6.8-3.3-12.9-6.4-18.4-1.5-1.3-6.6-5.7-5.9-7.6.3-.9,1-1.5,1.8-2-3.2-2.1-4-3.7-2.4-5.1,1.6,0,3.8.6,4.7,2.4,1.1,2.2,3.3,1.8,4.4,2.8h0Z"/>
      <path class="st108" d="M230.5,83c.6.5,1.1,1.8,2.2,1.8v1c-.6,3.5-8.1,7.1-11.8,5.6-1.8,1.5-3.5,2.3-5,2.3-.1.9-.5.9-.9,0-5.2.4-10.5,1.3-16.1,2.8l-.9-.7c0,.9-.3,1.2-1,1.3-8.8,1.8-15.9,3.2-25,1-3.3,1.2-5.6.8-6.9-1.1-1.5,2-6.4,1.6-7.1-1.1-1.8-1.9-1.2-2.4,1.1-1.3l-.5-1.7c4.7-1,9.7-1.3,14.9-.8,7.4-1,14.6-1.3,21.7-1,2.6-3.7,9.2-3,13.3-2.4,2.9-3,5.6-3.9,8.3-2.5,1.3-3.1,4.6-7.9,7-3.5,2.3.3,4.7-.6,6.9.3h-.2Z"/>
      <path class="st45" d="M193.7,24.1l10.9,7.2c1,1.7,2.4,3.1,4.2,4,.6.2,1.1.8,1.7.9-.2,1.5,1.5,1.8,3.4,2.4,0,1-1,1.8-1,2.7-1.5,2.9-4.5,2-8.9-2.7-6-2.5-11.9-5-17.8-7.4-4.1.9-6.4.3-6.7-2-2.8.6-4.9-1.3-3.7-4.1,3.5,0,7.9-3,10.7-2.1,2.4.7,4.7,1.2,7.1,1.1,0,0,.1,0,.1,0Z"/>
      <path class="st24" d="M208.9,35.2c-1,0-2.2.2-3.2-.5s-1-2.3-1.1-3.5c1.6,1.1,3.8,1.9,4.2,4h.1Z"/>
      <path class="st92" d="M269.4,80c1.7,1.2,5.9,2.1,6.1,4.7,4-1,6.4,7.2,1.1,6.4,2.1,3.5-3.6,6.3-6,2.7-1,2.8-6,0-5.2-2.7-.5-.2-.6-.8-.2-1.2,5.7.5.5-9.2,4.1-9.8h.1Z"/>
      <path class="st127" d="M277.4,70.1c4.6-.5,8.7,3.5,11.3,7.5,5.3,3.7,10.2,7.8,14.5,12.1,2.6-1.4,4.2-1.2,6.1,1.1,3.6,1.7,7.3,3,11.1,3.8,2.3,4.2,4.6,5.6,9.1,6.9.3-.8.6-.7.9,0,2.5,1.5,7.6,8.9,2.2,8-2.5,1.4-7-.3-9-2.2l-1.2.6c-4.4-1.7-9.1-3.1-13.9-4.2-3-1-5-3.1-6.1-6.2-2.3,3.5-6.3-1.2-6.6-4.5-3.8-.6-5.7-1.8-7.8-5-4.8-2.2-8.3-5.3-10.4-9.3,0,.2-1.7-2.1-1.9-9.9l1.7,1.1h0v.2Z"/>
      <path class="st91" d="M302.4,97.7c4.6,3.4,2.2,8.4-2.1,5.1-1,5.5-11.4.6-14.8-1.4-3.5-2.1-6.6-4-7.1-8.4-.8,0-1.4-.5-1.8-2,2.9-2.4-.9-4.6-1.1-6.4,1.7-1,2.6-3.9,2.1-5.8,2.8.6,4.6,3.2,7,4.9,2.6,1.8,5.9,2.5,6.8,6.1,2,.7,4,.8,5.8,2,.7,3.1,2.4,5.3,5.1,5.7h0v.2h.1Z"/>
      <path class="st15" d="M71.3,52.1c-.4.9-.8,2.3-1.6,3.5-4.3-.4-7.1,3-10.1,5.8-1.2,1.1-4.5-.8-5.7,1.1-.4.6,0,1.6,0,2-.3.5-1.3.7-1.8.8,1.1,2,1,3.8-1.6,4.6-.4,6-2.1,7.6-5.1,4.6-1.6,1.3-2.7,1.8-3.8-.4-2.5-.4-3.4-3.8-1.1-5.1-.4-.9.7-2.1,1-2.9.9-4.4,3.2-4.7,7.2-5.3,4-3.4,9-7.5,14.1-7.9,2.2-.5,6.4,0,8.8-.9h-.3Z"/>
      <path class="st34" d="M40.3,69c.7,1.6,1.3,3.3,1.1,5.1,2.4,2.1,2.4,3.7,0,5.7,1,2.1,2.9,6.1,0,7.2-7.1.5-8-2.9-11-2.3.5-3.7,4.3-17,10-15.7h0Z"/>
      <path class="st39" d="M62.7,52c.4.4,0,.7-.2,1-1.7,2.9-5.5,3.7-8.4,5.8-2.5,1.7-3.8,4.8-7.7,4.5-2.3-.2-4.1,1.3-5,2.9.3-.7.3-1.6.4-2.3,0-.6-.3-1.2-.3-1.8,1.8-2.5,5.7-2.9,7.7-5.1,2.1-2.3,3.4-3.2,6.8-3.1,1,0,2-2.5,3-2.6,1.4,0,2.6.3,3.8.8h0Z"/>
      <path class="st26" d="M61.2,87c2.2-2,4.1-.8,3.2,2l2,1.2c2.8-.3,6.1.5,3.9,3.4.7,3.3-2.3,2.7-4.6,1.3l-2.6.9c-2.2-1.5-5.1.3-8.1,0-2.2-.2-4.2-4.5-6.7-3.3-1.7-4.7-3.5-1.9-7.1-5.6,0-2.6-2.2-5.2,0-7.2,2-2,4.8-1.7,8.4,1,1.6,2.3,3.6,3.3,6,2.8,1.7,1.4,3.5,2.5,5.5,3.3h0v.2h0Z"/>
      <path class="st33" d="M118.3,40.2c2.6-.8,5.2-1.3,7.7-1.5l.8,1.4c.9.5,1.6,1.8,1,2.2-5.3,3.7-12.4,7.3-18.2,9.7-9.5,4.5-13.6,11-12.2,19.3l-1.7,1.9c1.2,2.1.9,2.2-1.4,1.6-2.2,3.8-13.5-4.3-9.3-7.9,1.1-4.6,3.3-9.5,7.2-12.8,1.5-1.3,3.8-2.4,5.7-3,1.3-2.1,5.4-2.3,7-3.8,2.7-2.7,5.6-2.4,8.6-3.9,1.3-.7,3.3-2.3,4.6-3.1h.2Z"/>
      <path class="st22" d="M173.8,24.8c.7,0,1.4.3,2.1.3,1.1,1.4,2.8,2.4,3.7,4.1.7,1.3.6,2.5-.9,2.7-6.6-.6-12.5-.1-17.6,1.4,0,.8-.2,1.9-.7,1.9-2.4,0-5.8,0-7.7-.9-5.7,5.6-17.7,6-25.7,5.7-2.9-.4-5.7,1.2-8.6,0,5.7-3.5,13.4-5.9,20.6-6.7,5.2-.5,7.7-1.6,11.7-4.3,2.3-1.6,7.6.3,10.3-3,8.2,2.3,6.1-.8,12.9-1.4h-.1v.2Z"/>
      <path class="st18" d="M95.2,50.9c.8-.2,2,.5,2.9,0-1.8,3-6,4.7-7.7,8.1-1.6,3-1.5,6.2-5.2,7.8.2,1.1,0,2.3-.5,3.6,2.1,2.6,2.2,4.5.4,5.7-4.4,2.1-9.4-6.7-6.8-10.3,7-4.6,3.5-10,16.9-15h0Z"/>
      <path class="st36" d="M100.9,41.9c-3.7,3.7-7.7,6.4-13.3,7.9,1.2-.3-8.5,6.2-9.3,9-2.8,2.2-4.9,4.8-6.3,8-2.6,1.3-3.8,3.2-3.5,5.5l-1.4,1.9c-1.2,2-5.7,3-6.9.6-4.2,2-5.1-2.5-2.7-6l4-2.1c1.6,0,1-3.1,1.9-3.8l14.2-10.1c3.3-2.3,6.2-2.5,9.2-5.6,1.4-1.5,6.5-.6,7-4.4.2-1.2,2.8-2.2,3.8-2.5,1-.4,2.1,1.1,3.3,1.6h0Z"/>
      <path class="st32" d="M61.5,66.7c1.6,3.7-3.6,1.9-3.5,5.5,0,1,1.1,1.9,2.1,2.6,2.9-.2,3,2.1.3,3.1,1.1,3.3-3,4.4-5.1,2-2.9,3.9-7.7-7.2-5.1-10.1-.2-1.4.3-4.2,1.6-4.6-1.2,2.8,5.7-1.9,9.5,1.5h.2Z"/>
      <path class="st74" d="M78.3,58.9c-.2.7.2,1.6-.2,2.5-.4.9-1.8.9-2.9,1.5-2.3,1.3-1.8,4.1-2,6.1,5.2,6.9,12.4,12.6,21.3,14.3.9,1.2.3,3-1,3.5-.2.9-.7,1.8-1.5,1.6-6.4-1.3-20.6-6.9-25-11.9v-2.3c-1.1-2.4-.7-5.8,2-7.5,7.6-4.9,3.7-8.3,9.4-7.8h0Z"/>
      <path class="st63" d="M85,76.2l.8-1.1c3.5,1.8,7.2,3.5,11.2,4.9l1,2c1.7,1.1,1.5,2.8-.8,5.1-.4,2.5-3.5,2.1-3.8-.3,0-.5-.2-2.7-1-2.7-7.7.4-12.3-6.2-15.2-7.9-3.2-1.8-4.4-3.8-4-7.2,2.6-.3,4.2-.6,5.1-3.1,1,4.2,3.2,8.1,6.8,10.3h0Z"/>
      <path class="st58" d="M297.5,78.8c.6.4,1.3.8,2,1.2,1.4-1.5,1.9-.9.9,1,1.2.9,5.5,6.1,4.8,7.3-.4.8-1.2,1.2-2,1.5-3.4-.9-6.7-3.5-9.8-5.8l-5.6-4.4c-2.7-2.1-3.1-5.8-7.3-6.7-1.4-.3-2.5-1.8-3.2-2.7,2.1-1.2,2.3-3.8,2.2-6,2.5.3,2.5,2.8,4,3.9,1.1.8,2.9,2.1,3.8,3,10.8,2.4,6,11.3,10.2,7.7Z"/>
      <path class="st119" d="M74,39.4c-1.7,4.5-19.6,10.9-23.5,11.6-.3-4.8,5.8-4.6,9.5-5.9l5.4-1.9c3.2-1.1,5.2-4.2,8.7-3.8h0Z"/>
      <path class="st9" d="M92.3,29.8c.8-.2,1.9.9,2.5,1.2-1.4.9-2.1,2.4-4.7,2.3-5.3,0-3.1,4.9-9.6,6.2-1,.2-1.4,1.2-1.9.9-1-.5-1.8-.9-2.4-1.4-.3-.7-.6-1.5-.2-2,2-2.2,2.3.2,5.2-2.1,3.3-2.6,7-4.2,11-5.3h0v.2h0Z"/>
      <path class="st60" d="M58.2,25.4c1.3,2.2-.3,3.8-4.9,4.8-2.6,0-5.2,2.3-8,1.9l-1-1.9c2.7-1.4,5.9-1.5,7.5-4.5,1.8-.2,4.5.6,6.3-.4h.1Z"/>
      <path class="st105" d="M72.5,21.1c0,.8,0,1.6.6,2.2-.8.6-1.9,1.3-2.8,1.9-9.5.9-8.7,5.8-17,5l4.9-4.8c.3-.2.9-.3,1.2-.3,1,0,2,.3,3-.3.8-.5.6-2.1,1.5-2.5.5,0,.5,2.2.8,2.7.4.6.7-1.3,1.8-1.3,1.8-1.5,3.8-4.2,6-2.7h0Z"/>
      <path class="st115" d="M66.4,33.2c-1.6,3.6-5.4,5.2-9.5,5.3-3.4,0-5.6,3-8.5,3.7-.5-.9-.8-2-.2-2.9,0-.8.2-1.5.8-1.8,4.8-2,10.4-4.3,15.2-5.2-.3-1.1,0-1.4,1.1-.9-.3.9.3,1.5,1.1,1.8h0Z"/>
      <path class="st23" d="M65.5,30.3c0,.3,0,.7-.2,1-.4.2-.9.5-1.1.9-1.6,1.4-2.6,1.1-1.9-1.1.4-.5.8-.9,1.3-1.3.6-.5,1.4-.3,1.9.4h0Z"/>
      <path class="st104" d="M62.2,31.2l1.9,1.1c-1.7,3.1-6.1,2.8-9.4,4.3-2.5,1.1-4.1,2.9-6.6,2.7-3.2-.2-6.4,1.1-8.4,3.9-1-1.6.2-2.3.4-3.2-1.7-3.7,9.3-3.5,16.5-6.6,2-.9,3.5-2.8,5.7-2.3h0Z"/>
      <path class="st78" d="M241.7,84.9l2.4,6c1.2-2.4,3.5-1.8,5.6-1.3v1.7c-.2,2.1-7.4-1.9-8,3.5-.2.8-.5.9-1,0-1.5,2-4,2.8-7.3,2.6-7.1,2.4-14.6,3.2-22.5,2.2l-1.2-2c-5.3-3.1,1.7-4.4,5.4-3.9h.9c2.4-1.5,5.2-2.1,8.2-1.7l2.5-.8c4.2-3.7,7.8-4.9,10.9-3.6,1.8-.7,1.9-3.6,4.2-2.7h0Z"/>
      <path class="st75" d="M213,41.1c.3,7.8,8,4.6,10.1,19,.5,3.3,2.3,6.6,2.6,9.9-1.2.4-2.5.9-3,2.1-.7,2.5-7.7,6.3-10.1,4.6-5.4-1.8-1.9-7.5.3-10.9-.6-3.4-1.7-7-3.3-10.6.7-1.9,0-3.9-2-6.2l-2.3-.2c-2.4-3.3-5.9-5.8-10.3-7.6-2.7-1.9-5.9-3.3-9.6-4.4-7.4-1.6-15-2.1-22.9-1.6l-1.5-2.1c.6-6.8,13.5.3,18.5-4.1,2.3,1,6.4-1.1,8.4.6,2.2,2,3.9,1.5,6.1,2.3,3.5,1.3,7.2,2.7,10.4,4.4,3.1,1.6,4.9,5.4,8.5,4.7h.1Z"/>
      <path class="st89" d="M222.7,72.1l.8,2.7c1.3,4.1-6.6,8.4-10,10.2-7.8,4.1-24.3,5.8-33.4,6.7-6.4.6-12.8.5-19.1.3-1.8.9-3.1.9-3.9,0,.5,2.1-.9,2.8-4.1,2.1-6.6-.4-13.4-.8-20.3-1.1l-1.3-1.4c-2.3-.6-3.8-1.6-4.4-3-.4-4.5,8.5-2.4,11.2-.8l1.2-1.9c5.8.2,11.5.6,17.3,1.1,11-2.2,22.2-3.5,33.4-3.7,6-1.6,11.6-4.1,16.7-7.3,2,1,4,1.2,6,.6,0-.3,7.3-4.9,10.1-4.6h-.2Z"/>
      <path class="st71" d="M223.5,74.8c1.3,0,5.2,1.2,3.9,2.7-1.6,1.9-4.3,2.5-3.7,5.3-4.6-.7-4,4.4-6.6,5.8-.8.4-2.2-1.6-3.3-1.2-2.1.7-3.4,3.8-6,3.3-4-.7-9-2-11.8,2.2-2.8.4-6.6-1.3-9.9-.5-4.2,1.1-7.7.9-12,1l-9.7.3c-2.3,0-4.6-1.1-5.4,1.1-2.7.7-3.5-.2-2-2.6,4.9-2.8,11.1-.4,16.5-1l11.2-1.2c5.5-.6,10-2.9,16-2.7,2.8,0,7.3-2.2,10.1-3.1,3.6-1.2,6.5-4.3,9.9-6,1.3-.6,1-3.7,2.8-3.2h0v-.2h0Z"/>
      <path class="st95" d="M55.4,80c3.6.7,10.8,3.4,5.8,7-2.1,1.2-4.9,1.1-6.2-1.7-6.5,1.8-1-2.7-13.7-5.4v-5.7c1.4,0,2.4-1.4,4-1.8,1.5-.4,1.7,1.9,2.6,2.6.3-2.3.3-4.4,2.4-5-1.1-.6,4.4,11.9,5.1,10.1h0Z"/>
      <path class="st114" d="M79.2,88.4c1.8-.3,2.3.2,1.1,1.5-4.3-.9-6.3,1.9-10.8-3.1-1.8,1.6-3.3,2.5-5.1,2.1-1-.8-2.1-1.4-3.2-2,.5-6.2-5.5-2-5.8-7,1.8-.5,3.7-.8,5.1-2,1-2.8,2.9-1.2,3.6,1.1,4.5,2.9,9.4,5.1,14.6,6.7l.4,2.7s0,0,.1,0Z"/>
      <path class="st19" d="M161.1,33.2c2.4,0,4.2.8,7.1.3,5.9-.8,12.3-.2,17.9,1.5,2,.6,3.4,3.3,6.2,1,4.2,6.1,12.4,5.3,15.3,13,2.7,3,3.3,5.5,1.6,7.6.3,3.3-.8,6.4-3.5,9.3.4,3.1-1.3,8.3-4.8,6.9-4.3,0-3.8-6.6-3.5-10,4.1-8.4,0-15.7-9.1-17.1l-4.1-3.4c-.3.8-.7,1.7-1.4,1.7-9.7-1.8-19.4-1.7-29.1,0-8.9-1.2-16.3-1.9-24.9,1.4-2,2.7-4.7,3.6-7.8,4.5-2.4,3-6.9,7.5-10.2,4-1.4,1.6-2.9,3.1-4.5,4.5-5.5,2.7-5.9,3.9-1.2,3.6l2.8,5.5c8.8,4.2,17.8,7.6,27.1,10.3l1,2c.1,1,.3,2.4-.4,2.8-2.1,1.4-17.2-1.7-19.6-4.4l-4.6-.5c-1.2,3-4.1.9-5.8-1-3,1.6-7.5-1.7-9.7-3.8-2.3-11.4,1.5-12.9,6-17.1l5.3-4.8c3-2.7,8.2-2.3,11.2-5.7,2.8-3.1,8.3-3.1,8.4-5.6,0-1.1,1.6-2.4,3-2,4.7,1.2,8.7-.3,13.1-1.5,3.3-.8,6.6-.3,8.7-3.9l9.3.6h0l.2.2h0Z"/>
      <path class="st75" d="M111.4,78c3,0,6.2,1,9.7,3.3,5.3.8,10.6,1.8,15.9,2.8,2.2,1.1,3.2,1.8,1,3.7-3.7-.5-7.6-.9-11.2.8-3.9.7-7.9.3-12-1.3l-.7-2.4c-5.8,0-21.4-3.1-19.6-10.2.3-.6.6-1.5,1.4-1.6,2.7-.3,5.3.3,7.1,2.9,1.4-.5,2.2-1.2,3.4-1.5,1.2,2.5,3.1,2.9,5.1,3.4h-.1Z"/>
      <path class="st14" d="M94.4,74.8c1.3,0,1.2,2.8,2.4,3.2,2.2.7,3.4,2.3,5.3,2.9l11.9,4.1c-1.7,5.1-17.1,2.8-16-3-2.5,0-5.1-.8-7.5-2.4l-5.5-3.5c-.3-2.7-3.1-4.8-2.2-7,.5-1.1,1.3-1.9,2.3-2.3-2.6,1.3,7,7.7,9.3,7.9h0Z"/>
      <path class="st84" d="M67,74.2c9.4,5.6,1.6,2.5,13,7.9,2.6,1.3,4.3,3.1,7.8,3.4,2,0,3.6,1.7,5.6,1.2,1.1-.3,2.7,1,3.8.3,1.9-1.8,3.2-.9,2.9,1.7,2.2.2,3.6,1.1,1.7,2.7-.4.4-.8.8-1.3,1-2.4,1.2-18.1-1.6-21.4-4.1-2.2-2.2-5.4-2-8.4-3.3-2.6-1.1-4.3-3.6-7.5-4.4-1.1-.3-1.3-3.2-2.8-2.8l-.3-3.1c2-.4,4.8-1.8,6.9-.6h0Z"/>
      <path class="st113" d="M114,85c2.3.8,5.1,2,7.6,3.1.7.3,1.7-1.6,2.7-1.4,1.1.2,1.9.9,2.4,1.9,1.3,2.6,4.9,0,4.4,3-4.5,1.6-5.2-6.4-6.4,0-1,.8-2.3.9-4,.2-7.2,1.8-14.3,0-20.7-3.1-1-.4-2.3-.8-2.9-1.7l-2.1-2.8c1.9-.5,3.2-.9,2.9-2.2,5.1,4.4,9.6,4.1,16,3h.1Z"/>
      <path class="st77" d="M212.6,76.7c-.5,2-2.6,3.2-4.6,3.7-.2-1.5,0-2.1-.3-2.9-11.2,7.5-2.9,2.7-12.9,5.8l-6.2,1.9c-2.9.9-19.7.7-28,2.7-3.1.7-8.4,1.8-11,.9-4.4-1.6-7.7-.4-11.5-.9-.2-.9-.8-1.7-2.1-2l-17.1-3.7c-1.3-.3-2.3-3.3-3.9-2.8-1.9.6-2.5-1-3.5-1.3,4.5-4.7,5.4,4.2,16.1,2,2.6,2.4,6.4,2.5,8.5,0l1-1.1c6.4,1,12.7,2.5,18.9,4.4l19.7-3c1.3-2.2,6.2-1.9,7.1.6,1.5-1.6,4-1.9,7.4-1,2.3-2.7,4.8-4,7.7-4.1,0-2.3,1.1-3.3,2.9-2.9,6.9-8.7-1.6-3,6.7-13-.9-2.7-.6-5.5,2.2-6.4-1.3-1.8-2.9-2.9-2.2-4.5,4,2,3.8,7.4,5.9,11.2,5.1,9.1-4.4,7.6-.8,16.4h0Z"/>
      <path class="st81" d="M184.2,42.4c3.6,2,6.9,4.2,9.9,6.7,1.1,5.4,1.1,14-6.4,12-.5,0-2.9,2.2-2.7,2.3,4.5,1.9,7.9,5.2,5.5,10.5-.9,2-5.3,7.3-7.6,7-2.5.4-4.6.2-7.1-.6-1.1,1.2-2.8,1-5.1-.5-5.2-.3-10.2.8-15,3.1l-19.7-4.8c-5.1-.4-9.8-2.1-14.4-5-5.7-1-9.6-3.3-11.8-6.8-7.5-4.1-3.8-8.2,1.1-12.2,3.6-.7,5.6-1.3,8.5-5,1.2-1.6,5.6-1.3,7-3.6,1.7-2.7,4.9-2,6.8-2.8,6.2-2.7,11.7-1.3,18-.5,6,.8,13-3.2,19.1-1.3,4.3,1.3,11.1.6,13.8,1.6h.1Z"/>
      <path class="st98" d="M200.9,72.9c-1,1.2-.2,5-3.2,4.8-2.9,0-3.9,1.9-5.5,3.3-2.8,2.4-6.6-.6-9.3-.2,3.4-7.2,10.1-9.3,4.9-13-.9-.7-.9-2.2-1.5-2.5s-2.7.9-3.1.3c-1.6-2.3.6-4.2,2.9-5.9,1.3-1,3-1.2,5.6.2l1.1-7.1c.3-2-.4-3.6-1.8-4.6-.8-.6-2.9,0-3.5-.9-.2-2.3-2.4-3.4-3.2-5,9.3,3.3,12.6,2,16.6,11,2.3,5.4-4.8,9.1.1,19.5h-.1Z"/>
      <path class="st98" d="M175.7,80.4c-.2.8-.5,1.6-1,1.9.4-.2-19.7,2.8-18.6,3.2l-8.4-2.4c-4.6-1.3-7.7-2-11.7-3-4.7-1.1-8.9-1.6-13.5-4.6-3.5-2.3-17.1-6.5-17.1-6.4,0-.4.6-1-1.7-6.1-1.2,1.9-1.8,4.4.4,5.7-1.4,0-2-.3-3.6.5l-.6-9.7c4.2-.6,7.2-4.5,11-5.2,0,4.2-3.1,2.5-3.4,7.4,0,1.5,1.6,2.1,3.2,3.1,1.5,1,1.8,4.5,3.9,4.9,15.3,3.1,14.1,8.5,22.3,6.6,1.8,3,4.8,1.3,7.1,2,2.6.8,4.8,2.8,7.8.8,8.1,5.8,2.8-2,19.3-1,1.6,0,3.3,2,4.8,2.5l-.2-.2h0Z"/>
    </g>
  </g>
  <g>
    <path class="st16" d="M111,19.8l-7.5,6.4h7.5l-.6,3.5h-10.1l2.4-13.4h12.5l7.5-6.4h-29.7l1.6,2-3.9,22.2-2.4,2h23.3c3.5,0,6.9-2.9,7.5-6.4l1.7-9.9h-9.9.1Z"/>
    <polygon class="st16" points="199.5 29.7 200.1 26.2 207.8 26.2 215.4 19.8 201.3 19.8 201.9 16.3 214.3 16.3 221.9 9.9 192.2 9.9 193.9 11.9 189.9 34.1 187.6 36.1 210.9 36.1 218.4 29.7 199.5 29.7"/>
    <path class="st16" d="M153.1,9.9l1.6,2-3.9,22.2-2.4,2h10.8l3.5-19.8h4.6l-3.1,17.8-2.4,2h10.8l3.5-19.8h4.6l-3.1,17.8-2.4,2h10.8l3.5-19.8c.6-3.5-1.7-6.4-5.3-6.4h-31.2,0Z"/>
    <path class="st17" d="M148.5,36.1l-2.9-21.7c-.4-2.7-2.5-4.5-5.3-4.5h-11.3l1.6,2-10.4,21.3-3.4,2.9h10.8l1.7-3.5h10l.3,2-1.8,1.5h10.8-.1ZM132.3,26.2l4.7-9.6,1.3,9.6h-6Z"/>
    <path class="st100" d="M70.8,25.2c-1.4.7-3,1-4.6,1s-.9,0-1.4,0c4.6-.4,8.8-3.9,9.5-8.1.7-4.1-2-7.5-6.2-8.1h.9c1.6,0,3,.4,4.2,1l.8-4.5h14.8l7.5-6.5h-32l1.6,2-1.6,8.9c-3,1.4-5.3,4.1-5.8,7.1s.8,5.7,3.3,7.1l-1.6,8.9-2.4,2h12.8l-1.6-2,1.6-8.9h.2Z"/>
    <path class="st100" d="M76.7,16.3v1.7c-.3,1.7-1.2,3.3-2.4,4.7h7.5l7.5-6.4s-12.6,0-12.6,0Z"/>
    <path class="st17" d="M75.1,40.8h3.9l-.2,1h-1.6l-.2,1h1.4l-.2,1h-1.4l-.5,2.2h-2.3l1.2-5.2h-.1Z"/>
    <path class="st17" d="M86.8,40.8l-.8,3.5c0,.4-.2.7-.3.8,0,.2-.2.3-.5.5s-.6.3-.9.4h-1.3c-.5,0-1,0-1.4-.2-.4,0-.6-.2-.8-.4-.2-.2-.2-.3-.2-.5s0-.6.2-1.1l.7-3.1h2.3l-.9,3.9v.4h.5c.1,0,0-.2.2-.5l.9-3.8h2.3Z"/>
    <path class="st17" d="M94.3,40.8l-.2,1h-1.4l-1,4.1h-2.3l1-4.1h-1.4l.2-1h5.1Z"/>
    <path class="st17" d="M101.3,42.3h-2.1v-.7h-.6s0,.2-.2.3v.4s.2.2.6.3c.9.4,1.5.6,1.7.9.2.2.3.6,0,1.1,0,.4-.2.6-.4.8s-.5.3-1,.4c-.4,0-1,.2-1.5.2s-1.1,0-1.5-.2c-.4,0-.6-.3-.7-.5v-1.2h2.2l-.2.6v.4h.7s.2-.2.2-.3v-.6l-1-.5c-.5-.2-.9-.4-1-.5-.2,0-.3-.2-.4-.4v-.7c0-.4.3-.7.5-.9s.5-.3.9-.4c.4,0,.9-.2,1.4-.2s1.1,0,1.5.2c.4,0,.6.3.7.4v1.1h.2Z"/>
    <path class="st17" d="M108.6,40.8v5.2h-2.3v-.9h-.7l-.4.9h-2.4l2.4-5.2h3.4ZM106.6,44.1c0-.6,0-1.3.2-2.2-.5,1-.8,1.7-1,2.2h.8Z"/>
    <path class="st17" d="M114.6,40.8l-1,4.1h1.4l-.2,1h-3.7l1.2-5.2h2.3,0Z"/>
    <path class="st17" d="M119.1,44.9v.5c-.2.2-.3.4-.4.6,0,.2-.3.3-.6.4-.3,0-.6.2-.9.2v-.4c.3,0,.5-.2.5-.3h-.4l.2-1h1.6Z"/>
    <path class="st17" d="M133.8,40.8l-1.2,5.2h-2l.8-3.5-1.6,3.5h-1.4v-3.4l-.8,3.4h-2l1.2-5.2h3v2.4l1.1-2.4h3-.1Z"/>
    <path class="st17" d="M140.7,40.8v5.2h-2.3v-.9c.1,0-.7,0-.7,0l-.4.9h-2.4l2.4-5.2h3.4ZM138.7,44.1c0-.6,0-1.3.2-2.2-.5,1-.8,1.7-1,2.2h.8Z"/>
    <path class="st17" d="M149.9,40.8l-1.9,2.3.8,2.8h-2.4l-.4-2.2-.5,2.2h-2.3l1.2-5.2h2.3l-.5,2,1.5-2h2.2,0Z"/>
    <path class="st17" d="M152.4,40.8h3.8l-.2,1h-1.5l-.2,1h1.4l-.2,1h-1.4l-.3,1.1h1.7l-.2,1h-4l1.2-5.2h-.1Z"/>
    <path class="st17" d="M165.3,40.8l-1.2,5.2h-2.3l1.2-5.2h2.3Z"/>
    <path class="st17" d="M172.9,40.8l-.2,1h-1.4l-1,4.1h-2.3l1-4.1h-1.4l.2-1h5.1,0Z"/>
    <path class="st17" d="M184.5,40.8l-1.2,5.2h-2l-.6-2.3-.6,2.3h-1.9l1.2-5.2h1.9l.7,2.3.6-2.3h1.9Z"/>
    <path class="st17" d="M192,43.8c-.1.5-.2.9-.3,1.1,0,.2-.3.4-.5.6-.3.2-.6.3-1,.4h-2.5c-.4,0-.6-.2-.8-.4s-.3-.4-.3-.6,0-.6.2-1.1l.2-.9c.1-.5.2-.9.3-1.1s.3-.4.5-.6c.3-.2.6-.3,1-.4h2.5c.4,0,.6.2.8.4s.3.4.3.6,0,.6-.2,1.1l-.2.9h0ZM190.1,42.1v-.5h-.6s-.1.2-.2.5l-.6,2.4v.6h.6s.1-.3.2-.6l.6-2.4h0Z"/>
    <path class="st17" d="M194.9,44.9l-.3,1.1h-1.7l.3-1.1h1.7Z"/>
    <path class="st17" d="M200.9,40.4l-1.4,5.8h-2.2l.8-3.1c.1-.4.2-.7.1-.8s0-.2-.2-.2h-1.2l.2-.7c1.1,0,2-.5,2.7-.9h1.3-.1Z"/>
  </g>
</svg>