<?xml version="1.0" encoding="UTF-8"?><svg id="_レイヤー_1" xmlns="http://www.w3.org/2000/svg" viewBox="0 0 262 78.4"><path d="M26.1,28.7c1.1-6.5-3.2-11.9-9.9-12.9h1.5c2.6,0,4.9.6,6.8,1.7l1.3-7.3h23.7L61.4,0H10.2l2.6,3.2-2.5,14.3C5.5,19.7,1.8,24,.9,28.9c-.9,4.9,1.4,9.1,5.3,11.4l-2.5,14.3L0,57.8h20.5l-2.6-3.2,2.5-14.3h.1c-2.3,1-4.8,1.6-7.3,1.6s-1.5,0-2.2-.2c7.4-.7,14-6.2,15.2-13Z" fill="#bc3229"/><path d="M29.6,28.9c-.5,2.8-1.9,5.3-3.9,7.4h12l12-10.2h-19.9c0,.9,0,1.8-.2,2.8Z" fill="#bc3229"/><path d="M97.6,47.5l2.8-15.8h-15.7l-12,10.2h12l-1,5.6h-16.1l3.8-21.4h19.9l12-10.2h-47.5l2.6,3.2-6.3,35.5-3.8,3.2h37.2c5.7,0,11.1-4.6,12.1-10.3Z" fill="#fff"/><polygon points="227.2 41.9 239.5 41.9 251.5 31.7 229 31.7 230 26.1 249.9 26.1 262 15.8 214.5 15.8 217.1 19 210.9 54.5 207.1 57.7 244.3 57.7 256.4 47.5 226.2 47.5 227.2 41.9" fill="#fff"/><path d="M201.7,15.7h-49.9,0c0,.1,2.6,3.3,2.6,3.3l-6.3,35.5-3.6,3-4.7-34.5c-.6-4.3-4-7.2-8.5-7.2h-18.2l2.6,3.2-16.6,34.1-5.5,4.6h17.3l2.7-5.6h16l.4,3.2-2.9,2.4h34.5l5.6-31.7h7.3l-5,28.5-3.8,3.2h17.3l5.6-31.7h7.3l-5,28.5-3.8,3.2h17.3l5.6-31.7c1-5.7-2.8-10.3-8.4-10.3ZM118.7,41.9l7.5-15.4,2.1,15.4h-9.6Z" fill="#fff"/><polygon points="27.2 65.3 25.2 73.6 28.9 73.6 29.7 70.1 32 70.1 32.4 68.5 30.1 68.5 30.5 66.9 33 66.9 33.4 65.2 27.2 65.2 27.2 65.3" fill="#fff"/><path d="M41,71.3c0,.4-.3.7-.3.8,0,.2-.3.2-.5.2s-.4,0-.4,0c0,0,0-.3,0-.7l1.5-6.2h-3.7l-1.2,4.9c-.3.9-.4,1.5-.4,1.8s0,.5.4.8c.3.2.7.4,1.3.6.6.2,1.5.2,2.2.2s1.4-.1,2-.2c.6,0,1.1-.3,1.5-.6.4-.3.7-.5.8-.8,0-.2.2-.7.4-1.3l1.3-5.5h-3.4l-1.5,6.1Z" fill="#fff"/><polygon points="49.8 65.2 49.4 66.9 51.6 66.9 50 73.5 53.7 73.5 55.3 66.9 57.5 66.9 57.9 65.2 57.8 65.2 49.8 65.2" fill="#fff"/><path d="M68.1,65.4c-.7-.3-1.5-.3-2.4-.3s-1.6,0-2.3.2c-.7.2-1.2.4-1.5.7-.3.3-.5.8-.7,1.4-.1.5-.1.8,0,1.1.2.3.3.5.6.7.2.2.8.4,1.6.8.8.4,1.3.7,1.5.8,0,.2.2.5,0,1-.1.2-.2.4-.3.5-.2.2-.3.2-.6.2s-.5,0-.5,0v-.6l.2-1h-3.5v.5c0,.6,0,1.1,0,1.4.2.3.6.6,1.2.8.6.2,1.5.3,2.4.3s1.7-.1,2.4-.3c.7-.2,1.2-.4,1.5-.7.3-.3.6-.7.7-1.3.2-.8,0-1.4-.2-1.8-.4-.4-1.3-.8-2.8-1.4-.5-.2-.9-.4-.9-.5v-.6c.1-.2.2-.4.3-.5,0-.2.3-.2.5-.2s.4.1.4.1c.1,0,.1.2,0,.5v.6h3.6c0,.1,0-.2,0-.2.1-.7.2-1.1,0-1.4s-.6-.5-1.2-.7Z" fill="#fff"/><path d="M71.7,73.5h3.8l.6-1.5h1.3l-.2,1.5s3.7,0,3.6,0v-8.3h-5.2l-3.9,8.3ZM77.8,67c-.2,1.4-.3,2.6-.3,3.5h-1.2c.2-.8.7-1.9,1.5-3.5Z" fill="#fff"/><polygon points="90.4 65.2 86.7 65.2 84.7 73.5 90.6 73.5 91 71.8 88.8 71.8 90.4 65.2" fill="#fff"/><path d="M95,71.8l-.4,1.6h.6c0,.2-.3.4-.8.5v.6c.5,0,1,0,1.4-.3.5,0,.8-.4,1-.6.3-.3.5-.6.5-1l.2-.7h0c0,0-2.4,0-2.4,0Z" fill="#fff"/><path d="M114.5,69.1v-3.9h-4.8l-2,8.3h3.2l1.4-5.4v5.4h2.3l2.6-5.6-1.3,5.6h3.2l2-8.3h-4.8l-1.8,3.9Z" fill="#fff"/><path d="M123,73.5h3.8l.6-1.5h1.3l-.2,1.5s3.7,0,3.6,0v-8.3h-5.2l-3.9,8.3ZM129.2,67c-.2,1.4-.3,2.6-.3,3.5h-1.2c.2-.8.7-1.9,1.5-3.5Z" fill="#fff"/><polygon points="146.7 65.1 143.3 65.1 140.9 68.3 141.7 65.1 138 65.1 136 73.4 139.7 73.4 140.6 69.9 141.2 73.4 145 73.4 143.8 68.9 146.8 65.2 146.7 65.1" fill="#fff"/><polygon points="150.7 65.3 148.7 73.6 155.1 73.6 155.5 71.9 152.8 71.9 153.2 70.1 155.5 70.1 155.9 68.5 153.6 68.5 154 66.9 156.5 66.9 156.9 65.2 150.8 65.2 150.7 65.3" fill="#fff"/><polygon points="165.8 73.5 169.5 73.5 171.5 65.2 167.8 65.2 165.8 73.5" fill="#fff"/><polygon points="175.5 65.2 175.1 66.9 177.3 66.9 175.7 73.5 179.4 73.5 181 66.9 183.2 66.9 183.6 65.2 183.5 65.2 175.5 65.2" fill="#fff"/><polygon points="198.3 68.9 197.1 65.2 194 65.2 192 73.5 195.1 73.5 196 69.7 197 73.5 200.2 73.5 202.2 65.2 199.2 65.2 198.3 68.9" fill="#fff"/><path d="M213,65.2c-.6-.2-1.3-.2-2-.2s-1.5,0-2.1.2c-.7.2-1.2.4-1.6.7-.5.2-.7.6-.9.9-.1.4-.3,1-.5,1.8l-.3,1.4c-.2.9-.3,1.5-.3,1.8s.1.6.4.9.7.5,1.3.7c.6.2,1.3.2,2,.2s1.5,0,2.1-.2c.7-.2,1.2-.4,1.6-.7.5-.2.7-.6.9-.9,0-.4.3-1,.5-1.8l.3-1.4c.2-.9.3-1.5.3-1.8s0-.6-.4-.9c-.3-.3-.7-.6-1.3-.7ZM211.1,67.3h-.1c0,0-.9,3.9-.9,3.9-.1.5-.2.8-.3.9,0,.2-.3.2-.5.2s-.4-.1-.4-.2c0,0,0-.4,0-.9l.9-3.9c0-.5.2-.8.3-.8.2,0,.3,0,.5,0s.3,0,.4.2,0,.3,0,.7Z" fill="#fff"/><polygon points="215.6 73.5 218.3 73.5 218.7 71.8 216 71.8 215.6 73.5" fill="#fff"/><path d="M226.2,64.7c-1.1.8-2.5,1.3-4.3,1.5l-.3,1.1h.4c.9,0,1.4.1,1.6.1.3,0,.4.2.4.3,0,.1,0,.6-.2,1.3l-1.2,5h3.6l2.2-9.3h-2.2Z" fill="#fff"/></svg>