<?xml version="1.0" encoding="UTF-8"?><svg id="_レイヤー_1" xmlns="http://www.w3.org/2000/svg" viewBox="0 0 68 68"><rect y="0" width="68" height="67.9" fill="none"/><path d="M19.9.3c-3.6.2-6.1.7-8.3,1.6-2.2.9-4.1,2-6,3.9-1.9,1.9-3,3.8-3.9,6-.8,2.2-1.4,4.6-1.6,8.2C0,23.8,0,24.9,0,34.1c0,9.2,0,10.4.2,14,.2,3.6.8,6.1,1.6,8.2.9,2.2,2,4.1,3.9,6,1.9,1.9,3.8,3,6,3.9,2.2.8,4.6,1.4,8.3,1.6,3.6.2,4.8.2,14,.2,9.2,0,10.4,0,14-.2,3.6-.2,6.1-.8,8.3-1.6,2.2-.9,4.1-2,6-3.9,1.9-1.9,3-3.8,3.9-6,.8-2.2,1.4-4.6,1.6-8.2.2-3.6.2-4.8.2-14,0-9.2,0-10.4-.2-14-.2-3.6-.8-6.1-1.6-8.2-.9-2.2-2-4.1-3.9-6-1.9-1.9-3.8-3-6-3.9-2.2-.8-4.6-1.4-8.3-1.6-3.6-.2-4.8-.2-14-.2-9.2,0-10.4,0-14,.2M20.3,61.7c-3.3-.1-5.1-.7-6.3-1.2-1.6-.6-2.7-1.4-3.9-2.5-1.2-1.2-1.9-2.3-2.6-3.9-.5-1.2-1-3-1.2-6.3-.2-3.6-.2-4.7-.2-13.7,0-9.1,0-10.1.2-13.7.1-3.3.7-5.1,1.2-6.3.6-1.6,1.4-2.7,2.5-3.9,1.2-1.2,2.3-1.9,3.9-2.5,1.2-.5,3-1,6.3-1.2,3.6-.2,4.7-.2,13.7-.2,9.1,0,10.2,0,13.7.2,3.3.1,5.1.7,6.3,1.2,1.6.6,2.7,1.3,3.9,2.5,1.2,1.2,1.9,2.3,2.6,3.9.5,1.2,1,3,1.2,6.3.2,3.6.2,4.7.2,13.7,0,9.1,0,10.1-.2,13.7-.1,3.3-.7,5.1-1.2,6.3-.6,1.6-1.4,2.7-2.5,3.9-1.2,1.2-2.3,1.9-3.9,2.5-1.2.5-3,1-6.3,1.2-3.6.2-4.7.2-13.7.2-9.1,0-10.2,0-13.7-.2M48.1,15.9c0,2.2,1.8,4.1,4.1,4.1,2.3,0,4.1-1.8,4.1-4.1,0-2.2-1.8-4.1-4.1-4.1-2.3,0-4.1,1.8-4.1,4.1M16.6,34.1c0,9.6,7.9,17.4,17.5,17.4,9.6,0,17.5-7.8,17.4-17.5,0-9.6-7.9-17.4-17.5-17.4-9.6,0-17.4,7.8-17.4,17.5M22.7,34.1c0-6.3,5.1-11.3,11.3-11.3,6.3,0,11.3,5,11.4,11.3,0,6.3-5.1,11.3-11.3,11.3-6.3,0-11.3-5-11.4-11.3" fill="#fff"/></svg>