<?xml version="1.0" encoding="UTF-8"?><svg id="_レイヤー_1" xmlns="http://www.w3.org/2000/svg" viewBox="0 0 300 300"><path d="M110,274.5c.5-12.9,6.6-25.2,10.5-37.4,2.4-7.5,5.5-18.6-3.3-23.2-11.2-5.9-22.8.9-29,10.6-3.2,5-5.2,10.5-8,15.7-2.8,5.2-6.6,9.6-11.5,13-8.4,5.8-21.2,7.1-27.3-2.6-5.2-8.3-2.9-19.7,2.9-27,7.2-9.1,19.6-11.1,29.8-15.3,4.5-2.1,6.8-7.3,8.2-11.8,1.7-5.3.9-10.9-3.6-14.4-5-3.8-11.8-3.4-17.7-2.9-3,.2-6.4.9-8.9-1.2-2.2-1.8-1.4-4.9-.1-7,2.9-4.9,9.4-6.2,14-9,2.2-1.3,4.4-3,5.2-5.6.8-2.5.5-5.7-.9-7.9-3.1-5.1-9.5-4.8-14.8-4.5-5.6.3-11.7.9-16.4-2.8-.7-.5-1.3-1.2-1.9-2.1-.6-.8-1-1.7-1.4-2.7-.3-1-.5-1.9-.4-2.9,0-1,.3-1.9.9-2.7,2.9-4.1,11.1-2.3,15.2-1.6,5.3,1,10.8,2.7,16.2,1.3,5.6-1.5,9.4-6.5,9.6-12.3.2-5.9-4.6-10-9.5-12.4-2.6-1.3-5.3-2.2-8.1-3.1-2.8-.9-17.2-4.9-20.8-14.8-1.8-5-2.1-10.1,1.8-14.2,10.9-11.3,24.4,3.8,25.7,6.3,2.6,4.9,5.7,9.5,10.3,12.7,4,2.8,9.9,4.6,14.3,1.7,12-7.7,4.6-22.4-1.6-31.1-7-9.8-16-18.5-15.3-31.6.3-5.6,2.7-10.8,7.4-14,3.9-2.7,9-3.9,13.6-2.7,10.2,2.6,17.9,13.4,19.3,23.5.9,6.2-.7,12.5.5,18.7.9,5,4.1,9.6,8.1,12.6,4.5,3.2,10.4,4.9,15.8,3.3,5.8-1.7,8.5-6.4,7.9-12.3-.2-2.4-1.1-5.3-1.3-8.1,0-.9,0-1.8,0-2.7.7-4.5,6-7.8,10-5.3,2.4,1.6,2,5.3,2.2,8,0,.9.1,1.9.1,2.8.1,3.8.1,7.6,1.5,11.1,1.8,4.6,7,11,12.7,9.7,4.6-1,7.7-4.6,9.6-8.7.9-2,1.7-4.1,2.4-6.1.7-2,1.2-4.8,3.1-6,2.4-1.6,4.5-1.9,7.1-.6,2.2,1.1,4.4,3,5,5.4,1.1,4.4-2.1,8.9-4.6,12.1-8.7,11,13.7,19.5,21.9,16.8,9.6-3.1,11.2-15.6,19.1-21,7.3-4.9,18.6-3.1,23.3,4.5,2.6,4.2,2.8,9.8.5,14.1-2.2,4.2-6.2,7.1-10.2,9.3-4.8,2.6-10.4,3.3-15,6.1-4.7,2.8-7,8.2-7.1,13.6,0,4,.7,12.4,5.9,12.9,5.9,0,11.3-5.4,15.8-8.7,2.4-1.8,4.6-3.8,7.2-5.3,2.6-1.5,5.3-2.6,8.1-3.5,5.4-1.6,11.2-1.9,16.6.1,9.4,3.6,13.9,13.4,12,23.1-1.1,5.3-3.9,10.2-8.2,13.6-4.5,3.6-10.2,4.8-15.8,4.8-3,0-5.7-.3-8.6-1-3-.7-6.1-1.8-9.2-1.1-5.6,1.2-10.5,5.6-12.9,10.7-3.8,8.2,3.3,13.3,10.1,16.2,3.8,1.6,7.7,2.9,11.6,4.2,2.6.9,5.5,1.4,7.9,2.6,2.5,1.2,3.5,3.2,4.1,5.8,1.3,5.4-2.5,11-7.4,13.4-4.8,2.3-10.5,1.3-15.1-1-4.9-2.5-13.7-19.8-27.1-8-4,3.5-7,8.2-7.4,13.5-.5,5.7,2.9,9.7,6.4,13.6,3.7,4.1,9.1,9.2,9.5,15.1.4,5.9-7.8,5.7-11.5,3.9-8.8-4.3-9-15.7-12.8-23.6-3.5-7.4-11.4-15.5-20-10-8.2,5.2-5.5,14.8-2.2,22.1,1.8,3.9,4,7.5,5.9,11.4,1.4,2.6,3.2,4.9,4.5,7.6,1.4,2.8,2.3,5.7,2.9,8.7.8,4.3,1,9.4-1.8,13.1-2.7,3.7-7.9,5.3-12.2,3.5-4.8-2.1-8-7.2-9.7-12-1-2.8-1.6-5.6-1.2-8.6.4-3.5,1.3-6.9,1.9-10.3,1-5.5.9-11.7-3.9-15.4-4.4-3.5-10.3-2.5-14.7.5-5.1,3.5-8.1,8.8-7.2,15.1.9,6.2,4.2,11.7,4.7,18.1.7,10-1.7,21.9-10.7,27.7-5.8,3.7-13.2,4.4-19.5,1.6-6.9-3-10.2-8.9-13-15.5.1-3.2.5,1.2,0,0Z" fill="#f19019"/><path d="M165,30.4c.1,2.8-1.9,5.3-4.4,6.1-2,.4-4.5,0-6.1-1.6-2-2-2-5.3-.8-7.7,2-3.3,7.3-4.1,9.6-1,1.1,1.1,1.7,2.6,1.7,4.3Z" fill="#f19019"/><path d="M141.8,19.3c0,1.7.4,3.4-.8,5-2.9,3.3-7.3,4.9-11.4,2.4-5.3-3.7-5.3-11.8.8-15.1,4.1-2,9,.4,10.5,4.4.5,1,.8,2.1.8,3.3Z" fill="#f19019"/><path d="M258.4,238.8c-.8,4.6-6.5,7.1-10.6,5.4-3.3-1.6-5.3-5.3-3.7-8.6,2.9-5.7,11.4-4.5,13.8.6.4.8.5,1.6.5,2.5Z" fill="#f19019"/><path d="M82.1,278.5c.3,7.3-5.8,15.5-13.9,14.2-8.6-2-11.8-12.2-9-20,1.2-3.3,4.1-5.3,6.9-6.5,6.5-2,14.3,2,15.5,8.8.3,1.1.5,2.2.5,3.4Z" fill="#f19019"/><circle cx="37.7" cy="181.2" r="8.2" transform="translate(-144.5 214.1) rotate(-88.5)" fill="#f19019"/><path d="M28.4,138.9c.3,7.6-8.3,12.1-14.8,9.2-4.5-2-7.7-7.3-6.1-12.2,1.6-4.5,6.1-7.3,10.6-7.3s9,3.3,10,7.6c.2.9.4,1.8.4,2.7Z" fill="#f19019"/><path d="M116.7,138.8c-.2.4-.5.9-.7,1.5-.3.6-.5,1.1-.6,1.5-.4,1-.9,2.1-1.4,3.3-.5,1.2-1.2,2.4-1.9,3.7-.7,1.2-1.5,2.4-2.4,3.5-.9,1.2-2,2.5-3.2,3.7-1.2,1.3-2.5,2.5-4.1,3.7-1.5,1.2-3.3,2.4-5.4,3.6l-3.8-3.5c2.8-1.3,5.2-2.9,7.2-4.6,2-1.7,3.9-3.6,5.5-5.8,1.2-1.6,2.2-3.2,2.9-4.8.7-1.6,1.4-3.1,1.9-4.7.1-.4.3-.9.4-1.5s.3-1.1.3-1.5l5.1,1.8ZM99.5,141.6c.8.5,1.6,1,2.5,1.6.9.6,1.8,1.2,2.7,1.8.9.6,1.7,1.2,2.6,1.8s1.6,1.2,2.2,1.7c1.7,1.3,3.3,2.7,4.9,4.1,1.6,1.4,3,2.8,4.3,4.1l-3.5,3.9c-1.4-1.6-2.8-3.1-4.2-4.4-1.4-1.3-3-2.7-4.6-4.1-.6-.5-1.2-1-1.9-1.5-.7-.5-1.5-1.1-2.3-1.7-.8-.6-1.7-1.2-2.6-1.9-.9-.6-1.9-1.3-2.9-1.9l2.9-3.5Z" fill="#fff"/><path d="M124.3,155.5c.6,0,1.3,0,2,.1.7,0,1.4,0,2,0h17.5c.5,0,1.1,0,1.8,0s1.3,0,1.8-.1v5.2c-.6,0-1.2-.1-1.9-.2s-1.2,0-1.7,0h-17.5c-.6,0-1.3,0-2,0s-1.4,0-2,.2v-5.2ZM126.9,140.4c.6,0,1.2.1,1.9.2.7,0,1.3,0,1.9,0h12.7c.6,0,1.3,0,1.9,0,.6,0,1.2,0,1.6-.1v4.9c-.5,0-1,0-1.7,0-.7,0-1.3,0-1.9,0h-12.6c-.6,0-1.2,0-1.9,0-.7,0-1.3,0-1.9,0v-4.9Z" fill="#fff"/><path d="M157.4,157.9c.4,0,.9,0,1.5.1.6,0,1.1,0,1.7,0h16c.4,0,.9,0,1.6,0,.6,0,1.2,0,1.6-.1v4.4c-.2,0-.5,0-.9,0-.4,0-.8,0-1.2,0-.4,0-.7,0-1,0h-16.1c-.6,0-1.1,0-1.5,0-.5,0-1,0-1.6,0v-4.5ZM176.7,146.9c0,.2-.2.4-.2.7,0,.3,0,.5-.1.7,0,.4-.1,1-.3,1.8-.1.7-.2,1.6-.4,2.5-.1.9-.3,1.8-.4,2.7s-.3,1.7-.4,2.5c-.1.8-.2,1.4-.3,1.8h-4.7c0-.4.2-1,.3-1.6.1-.7.2-1.4.4-2.1.1-.8.2-1.5.3-2.3.1-.8.2-1.5.3-2.1,0-.7.1-1.2.2-1.6h-8c-.5,0-1,0-1.7,0-.6,0-1.1,0-1.6.1v-4.5c.3,0,.6,0,1,.1s.8,0,1.2,0c.4,0,.7,0,1,0h7.5c.2,0,.5,0,.8,0,.3,0,.7,0,1-.1.3,0,.6-.1.7-.2l3.3,1.6Z" fill="#fff"/><path d="M187.2,147c.4,0,.9,0,1.5,0,.6,0,1.3,0,1.9,0,.6,0,1.2,0,1.7,0h16.5c.7,0,1.4,0,2.1,0,.7,0,1.2-.1,1.6-.1v5.4c-.4,0-.9,0-1.7-.1-.7,0-1.4,0-2.1,0h-16.5c-.9,0-1.8,0-2.8,0-1,0-1.8,0-2.4.1v-5.4Z" fill="#fff"/><rect width="300" height="300" fill="none"/></svg>