<?xml version="1.0" encoding="UTF-8"?><svg id="_レイヤー_1" xmlns="http://www.w3.org/2000/svg" viewBox="0 0 300 300"><path d="M96.9,296.8c-11.9-2.2-21.3-13.8-16.7-25.9,2.4-6.5,8.2-10.4,13.2-14.7,5.1-4.4,10-9.3,13.8-14.9,2.8-4.2,7.7-11.3,3.4-16-4.2-4.7-10.3-3-15.2-.7-6,2.8-11.2,7-16.8,10.5-5.1,3.2-11.7,7-17.3,2.9-7.1-5.3-1.2-12.1,3.4-16.3,5.3-4.9,10.3-10.2,13-17.1.5-1.4,1.2-3,1.3-4.5.1-1.7-.7-2.7-1.6-4-2.2-3.3-3.7-7-4.8-10.8-2.1-7.5-2.3-15.3-2.5-23,0-3.7,0-7.4-.3-11.1-.1-2.7-.1-5.6-2.1-7.8-3.1-3.3-8.6-3.4-12.7-2.9-3.3.4-6.6,1.1-10,1.2-3.8.1-7.4-.9-10.8-2.5-5.6-2.6-10.8-7-13.4-12.7-2.5-5.2-2.7-11.2,2.2-14.9,5.1-3.9,12.2-4.1,18.2-3,3.3.6,6.7,1.7,9.2,4,2.5,2.4,4.9,5,7.6,7.2,4.7,4,11.4,7.7,17.3,4,5.8-3.7,9.7-9.9,14-15.2,4.6-5.6,10.4-10.3,16.7-13.9,3.2-1.9,6.7-3.4,10.2-4.6,2.9-1.1,5.9-2.7,7.8-5.2,3.3-4.5,2-10.5,0-15.3-2.3-5.8-6.4-10.7-8.6-16.5-2.5-6.7-5.5-13.3-7.5-20.2-1.9-6.7-2.5-14.1,1.6-20.2,3.5-5.1,9-8.7,15.2-9.3,5.9-.6,12,1.7,15.9,6.2,4.4,5,5.2,12.5,5.1,18.9-.4,14.6-6.9,30.1-.8,44.4,2.7,6.4,7.7,11.6,14.5,13.6,5.9,1.7,12.1.6,16.5-4,1.8-1.9,3.1-4.2,4-6.6,1-2.9.7-5.9,1.4-8.7.7-2.7,2-5.2,4.5-6.6,3.2-1.7,7.2-.8,9.5,1.9,4.9,5.8.1,13.2-2.1,19.1-2.5,6.7-4.2,13.9-.8,20.6,3.1,5.9,9.9,8.1,15.2,3.7,5.2-4.2,7.5-11,10.5-16.7,3.1-5.9,7-13,14-14.7,5-1.2,10.6-.3,14.8,2.6,11,7.7,5,24.5-5,30.2-5,2.9-11,3.6-16.1,6.3-2.7,1.4-5.1,3.3-5.6,6.6-.2,3.4.8,6.7,3.3,9.1,4.8,4.7,12,5.1,17.1,9.2,4.4,3.5,2.2,11.7-.5,15.5-3.7,5.3-11.1,7.9-11.7,15-.3,3.5,0,7.1,1.3,10.4,1.1,2.9,2.7,6.6,5.3,8.6,2.2,1.7,5.1,2.3,7.8,2.9,3.5.8,7,1.3,10.5,1.6,2.7.3,5.4,0,8.2.4,2.8.5,5.6,1.5,8.1,2.9,10.2,5.7,14.8,18.1,9.2,28.7-6.4,12-21.4,12.3-32.2,6.1-6.5-3.7-10.5-9.8-14.9-15.6-3.5-4.6-8.1-9.3-14.4-8.9-6,.4-10.6,6.7-11,12.4-.5,5.9,2.9,11.3,5.8,16.1,3,5,7.8,11.4,5.5,17.6-1.1,2.9-3.7,5.7-6.7,6.5-4.2,1.2-6-1.8-7.9-4.9-3.3-5.3-6.2-10.9-12.9-12.3-6.1-1.3-13,.6-18.6,3.1-5.2,2.3-9.9,4.8-15.7,2.8-5.1-1.8-9.5-5.2-14.5-7.2-10.4-4.1-18.1,3.9-19.2,13.8-1.2,10.3.2,21.2-3.6,31.1-1.4,3.8-3.7,7.5-7.2,9.6-4.2,2.6-9.5,2.1-14.2,2-10.1-1.8,2,0,0,0Z" fill="#e6262f"/><path d="M81.3,94.9c.2,2.7-1.4,5.2-3.4,6.7-3.4,2.5-7.6,2.2-11-.2-4.9-4-4-11.7,1.6-14.6,2.5-1.1,5.2-1.6,7.6-.4,2.5,1.1,4.5,3.6,5,6.3.1.7.2,1.5.2,2.3Z" fill="#e6262f"/><path d="M56.9,247.7c0,.7-.1,1.4-.3,2-.2.6-.5,1.2-.9,1.8-1.6,2-4.4,3.6-7.1,2.1-.6-.3-1.2-.8-1.7-1.2-2.6-2.3-3.5-6.2-.8-9.1,3.4-3.1,9.4-1.8,10.7,2.8.1.5.2,1,.2,1.6Z" fill="#e6262f"/><path d="M271.1,170.5c.2,3.1-1.6,6-4,7.8-3.9,2.9-8.9,2.6-12.8-.3-4.3-3.5-4.8-9.4-2-13.6.9-1.4,2.2-2.6,3.9-3.4.5-.2,1-.4,1.5-.6.5-.2,1-.3,1.5-.4,1-.2,2-.3,3-.3,1,0,2,.3,2.9.7,1,.4,1.9,1.1,2.7,1.8,1.6,1.5,2.8,3.4,3.2,5.5.2.9.2,1.7.2,2.6Z" fill="#e6262f"/><path d="M230.2,272.6c0,1-.2,1.9-.6,2.8-.3.9-.8,1.7-1.4,2.4-2.3,2.7-6.4,4.6-10.1,2.4-.8-.5-1.6-1.1-2.3-1.8-3.5-3.4-4.4-8.9-.5-12.7,5-4.1,13.3-1.8,14.7,4.7.2.7.2,1.5.2,2.2Z" fill="#e6262f"/><path d="M91.3,163.7l2.9,1.1c-.5,1.1-1.1,2.2-1.8,3.3s-1.4,2.2-2.2,3.1-1.6,1.8-2.4,2.5c-.3-.4-.7-.9-1.2-1.5-.5-.6-1-1-1.5-1.4.8-.5,1.6-1.2,2.4-1.9.8-.8,1.5-1.6,2.2-2.5.7-.9,1.2-1.8,1.7-2.7ZM85.9,156.2h14.6v3.3h-14.6v-3.3ZM86,161.7h14.2v3.4h-14.2v-3.4ZM86.3,149.4h14v3.3h-14v-3.3ZM87.7,153.1l3.2-.8c.2.5.5,1.1.7,1.8.2.6.3,1.2.4,1.7l-3.3.9c0-.5-.1-1.1-.3-1.8s-.4-1.3-.6-1.8ZM91.3,146.6h4v4.2h-4v-4.2ZM91.3,159.4h4v16.1h-4v-16.1ZM95,165.1c.2.1.6.3,1,.6.4.3.9.6,1.4,1,.5.4.9.7,1.3,1,.4.3.7.5.9.7l-2.4,2.9c-.2-.3-.6-.7-.9-1.1-.4-.4-.8-.8-1.2-1.2-.4-.4-.8-.8-1.2-1.2-.4-.4-.7-.7-1-1l2.2-1.8ZM95.3,152.3l3.6.7c-.3.7-.6,1.3-.8,1.9-.2.6-.5,1.1-.7,1.6l-3.2-.6c.1-.3.3-.7.4-1.1.1-.4.3-.8.4-1.2.1-.4.2-.8.3-1.2ZM101.3,148.8l4.7,1.3c0,.3-.3.5-.8.6v9c0,1.2,0,2.4-.2,3.8-.1,1.4-.3,2.8-.6,4.3s-.8,2.9-1.4,4.2c-.6,1.4-1.5,2.6-2.5,3.7-.2-.3-.4-.6-.8-1s-.7-.7-1.1-1.1c-.4-.3-.7-.6-1.1-.7.9-.9,1.6-1.9,2.1-3,.5-1.1.9-2.2,1.1-3.4.2-1.2.4-2.3.5-3.5,0-1.2.1-2.3.1-3.3v-10.8ZM111.4,146.7l3.3,3c-1.1.5-2.2.9-3.5,1.3-1.2.4-2.5.8-3.8,1.1s-2.5.6-3.7.8c0-.4-.3-1-.5-1.6s-.5-1.1-.8-1.5c1.1-.2,2.2-.5,3.3-.8s2.1-.7,3.1-1,1.8-.8,2.5-1.1ZM103.2,156.5h11.5v3.8h-11.5v-3.8ZM108,158.2h4v17.2h-4v-17.2Z" fill="#fff"/><path d="M123.4,146.7h3.8v11.3c0,1.5,0,3-.2,4.6-.1,1.6-.4,3.1-.8,4.7-.4,1.5-1,3-1.8,4.3-.8,1.4-1.8,2.6-3.1,3.6-.2-.3-.4-.6-.8-1-.3-.4-.7-.7-1-1.1-.4-.4-.7-.6-1-.9,1.1-.8,2-1.8,2.6-2.9.6-1.1,1.1-2.4,1.4-3.7.3-1.3.5-2.6.6-3.9,0-1.3.1-2.6.1-3.7v-11.3ZM119.1,158.2h12.4v3.7h-12.4v-3.7ZM119.6,151h11.4v3.6h-11.4v-3.6ZM126.8,162.1c.2.2.5.5.9.9.4.4.8.8,1.2,1.3.4.5.9,1,1.3,1.5.4.5.8.9,1.1,1.3.3.4.6.7.7.8l-2.8,3c-.3-.5-.7-1.1-1.1-1.7s-.9-1.3-1.3-1.9-.9-1.3-1.4-1.8c-.4-.6-.8-1.1-1.2-1.5l2.5-1.9ZM134.2,164.9h3.8c-.1,1.2-.3,2.3-.6,3.4-.3,1.1-.6,2-1.2,2.9-.5.9-1.2,1.7-2.1,2.4s-2.1,1.4-3.5,1.9c-.2-.5-.5-1-1-1.6-.5-.6-.9-1.1-1.3-1.5,1.6-.5,2.8-1.1,3.6-1.9.8-.8,1.3-1.6,1.6-2.6.3-1,.5-2,.6-3.1ZM132.4,147.4h13.9v18.1h-13.9v-18.1ZM136.2,151v1.4h6.2v-1.4h-6.2ZM136.2,155.7v1.5h6.2v-1.5h-6.2ZM136.2,160.4v1.5h6.2v-1.5h-6.2ZM139.3,164.2h3.8v6.2c0,.4,0,.7,0,.8s.2.2.4.2h.8c.1,0,.3,0,.3-.2,0-.2.1-.5.2-1s0-1.3,0-2.4c.2.2.6.4,1,.6.4.2.8.4,1.3.5s.8.3,1.1.4c-.1,1.5-.3,2.6-.6,3.4-.3.8-.6,1.4-1.1,1.7-.5.3-1.1.5-1.9.5h-1.9c-1,0-1.7-.1-2.2-.4-.5-.3-.9-.8-1.1-1.4s-.3-1.5-.3-2.6v-6.2Z" fill="#fff"/><path d="M163.6,155l4.7.9c-.7,3-1.7,5.8-2.8,8.3-1.2,2.5-2.6,4.7-4.2,6.6-1.6,1.9-3.5,3.5-5.6,4.8-.2-.3-.6-.6-1.1-1.1-.5-.4-.9-.8-1.4-1.3-.5-.4-.9-.8-1.3-1,3.2-1.6,5.7-3.9,7.6-6.8,1.9-2.9,3.2-6.4,4-10.4ZM158.3,148h8.8v4.2h-8.8v-4.2ZM165,148h4.3c0,1,0,2.1.1,3.4,0,1.3.3,2.6.5,4,.3,1.4.7,2.8,1.2,4.3s1.2,2.9,2.1,4.4c.9,1.4,2,2.8,3.3,4.1,1.3,1.3,2.9,2.5,4.8,3.6-.3.2-.7.6-1.1,1-.4.4-.8.9-1.2,1.3s-.7.9-1,1.2c-1.9-1.2-3.6-2.5-5-4-1.4-1.5-2.6-3.1-3.5-4.8-1-1.7-1.7-3.4-2.3-5.1-.6-1.7-1.1-3.4-1.4-5.1-.3-1.6-.5-3.2-.6-4.7-.1-1.5-.2-2.7-.2-3.8Z" fill="#fff"/><path d="M199.9,150.3c-.8,1.2-1.9,2.3-3.2,3.5-1.3,1.2-2.7,2.3-4.3,3.4-1.6,1.1-3.2,2-4.9,2.8-.2-.4-.4-.7-.7-1.1-.3-.4-.6-.8-.9-1.2-.3-.4-.6-.8-.9-1.1,1.8-.8,3.5-1.7,5.1-2.9,1.6-1.1,3.1-2.4,4.3-3.7,1.3-1.3,2.3-2.5,3-3.7h4.4c.8,1.1,1.7,2.2,2.7,3.2,1,1,2,1.9,3.2,2.7,1.1.8,2.3,1.5,3.5,2.2,1.2.6,2.4,1.1,3.6,1.6-.5.5-1,1.1-1.4,1.8-.4.7-.9,1.3-1.2,1.9-1.5-.7-3.1-1.6-4.7-2.6-1.6-1-3-2.1-4.4-3.3-1.3-1.2-2.4-2.3-3.3-3.5ZM187.1,161.6h25.8v3.8h-25.8v-3.8ZM187.2,170.7c1.9,0,4-.1,6.4-.2,2.4,0,4.9-.2,7.6-.3,2.7-.1,5.3-.2,7.9-.3v3.7c-2.6.1-5.1.3-7.7.4-2.6.1-5,.2-7.3.4-2.3.1-4.4.2-6.3.3l-.6-4ZM194.4,164.1l4.7,1.3c-.5.9-1,1.9-1.5,2.9-.5,1-1,1.9-1.5,2.8-.5.9-1,1.7-1.4,2.3l-3.6-1.2c.4-.8.8-1.6,1.3-2.5.4-.9.8-1.9,1.2-2.9s.7-1.9.9-2.7ZM192.7,155.6h14.4v3.8h-14.4v-3.8ZM202.2,167.2l3.6-1.9c.9.8,1.8,1.6,2.7,2.6.9.9,1.7,1.9,2.5,2.8s1.4,1.8,1.8,2.6l-3.8,2.3c-.4-.8-1-1.7-1.7-2.6-.7-1-1.6-2-2.4-3-.9-1-1.8-1.9-2.7-2.7Z" fill="#fff"/><rect width="300" height="300" fill="none"/></svg>